<svg width="762" height="748" viewBox="0 0 762 748" fill="none" xmlns="http://www.w3.org/2000/svg">
<path d="M316.449 48.5779C318.607 49.8401 320.907 50.8422 323.3 51.5634C325.865 52.4344 328.55 52.896 331.258 52.9313C333.343 53.026 335.41 52.5092 337.205 51.4445C337.808 50.0106 338.801 48.7745 340.072 47.8762C341.804 46.6149 343.686 45.5723 345.674 44.7717C346.824 47.5947 347.775 49.8348 348.528 51.4921C349.152 52.9642 350.039 54.3104 351.145 55.4648C353.298 57.2965 354.951 57.4987 356.117 56.0952C357.283 54.6916 358.603 49.8268 360.102 41.5365C360.092 41.1169 360.132 40.6977 360.221 40.2876C360.365 39.8596 360.578 39.4579 360.851 39.0981C365.302 37.6835 369.829 36.52 374.411 35.6131C379.382 34.5505 384.505 33.6862 389.778 33.0201C386.796 39.2061 383.21 45.0826 379.073 50.5643C375.108 55.7978 371.873 58.9102 369.367 59.9014L369.867 60.4009C373.507 60.5675 377.737 57.9943 382.558 52.6815C388.276 46.1837 393.519 39.283 398.247 32.0329C405.039 31.3668 410.772 30.9981 415.41 30.9148C418.919 30.7234 422.437 31.0156 425.866 31.7831C428.115 32.2571 430.406 32.5081 432.705 32.5324C434.377 32.5759 436.047 32.408 437.677 32.0329C438.93 31.6998 439.679 31.2835 439.925 30.784C440.175 30.2844 439.925 29.88 439.294 29.5945C436.123 27.4297 431.23 26.2403 424.617 26.0262C416.882 25.8303 409.144 26.2759 401.482 27.3584C403.972 23.0526 406.046 19.738 407.703 17.4147C409.356 15.0358 410.688 13.7631 411.676 13.4301C413.341 12.5975 412.151 10.4803 408.107 7.07847C404.063 3.67668 401.355 1.46036 399.983 0.429513C398.984 -0.403093 398.116 -0.022473 397.367 1.54758C396.662 2.90138 396.361 4.42869 396.498 5.9485C396.961 9.23541 396.751 12.5821 395.88 15.7852C394.814 20.1305 393.442 24.3953 391.776 28.5478C387.296 29.2139 382.776 29.9593 378.217 30.784C373.657 31.6086 369.054 32.6038 364.407 33.7694C368.375 28.6234 372.695 23.7588 377.337 19.2107C383.308 13.1605 386.543 9.80228 387.042 9.1362C385.06 10.4684 380.584 14.3658 373.614 20.8284C366.644 27.291 361.83 31.9377 359.174 34.7686C358.165 34.9011 357.167 35.1078 356.188 35.3871L354.202 36.0056C353.71 35.534 353.363 34.9314 353.203 34.269C353.012 33.3701 352.928 32.4519 352.953 31.5333C351.803 26.3711 350.34 22.8861 348.564 21.0781C347.873 20.2566 347.017 19.5887 346.052 19.1176C345.088 18.6464 344.035 18.3824 342.962 18.3424C341.475 18.3424 340.809 19.0918 340.975 20.5905C341.142 22.0892 341.309 23.3262 341.475 24.3134C341.603 26.1557 341.854 27.9875 342.224 29.7967C342.724 32.6157 343.414 35.6012 344.211 38.7532C340.254 39.8792 335.001 41.2351 328.451 42.8211L314.641 46.211C314.142 46.7105 314.76 47.4956 316.449 48.5779Z" fill="#1A1A1A"/>
<path d="M403.206 102.947C395.886 104.144 388.968 107.112 383.057 111.594C382.879 109.001 382.82 106.063 384.604 104.172C385.212 103.593 385.892 103.094 386.626 102.685C400.433 94.2341 413.697 84.9264 426.341 74.817C426.612 74.6545 426.846 74.4373 427.028 74.1792C427.211 73.9212 427.337 73.6279 427.4 73.3183C427.359 72.9976 427.248 72.6898 427.076 72.4165C426.903 72.1431 426.673 71.911 426.401 71.7363C422.892 68.7794 418.856 66.5115 414.506 65.0517C413.067 64.564 411.307 64.2191 410.153 65.2182C409.448 66.0029 409.007 66.9888 408.892 68.0372C405.823 81.5848 394.726 91.588 384.128 100.628C383.236 90.9832 385.267 81.2937 389.956 72.8187C390.281 72.351 390.474 71.8046 390.515 71.2367C390.392 70.4516 389.965 69.7465 389.326 69.2742C385.454 65.7313 381.096 62.7595 376.385 60.4485C375.195 59.8538 373.185 59.3662 372.448 60.8886C371.603 62.6609 373.471 64.897 374.16 66.3957C374.973 68.53 375.321 70.8128 375.183 73.0923C375.271 86.6281 375.16 100.164 374.85 113.7C374.888 115.005 374.707 116.308 374.315 117.553C373.457 119.278 372.217 120.783 370.687 121.954C365.782 126.465 361.569 131.675 358.186 137.417C362.866 130.464 368.428 124.147 374.731 118.624C373.066 124.797 375.695 131.577 380.227 136.085C384.758 140.593 390.931 143.114 397.14 144.589C407.845 147.135 419.05 146.861 430.064 146.552C438.89 146.302 447.906 145.993 456.053 142.484C457.576 141.818 459.181 140.902 459.717 139.332C459.911 138.758 459.961 138.145 459.859 137.548C459.609 136.372 459.092 135.269 458.349 134.325C453.591 127.866 450.784 125.856 444.42 120.955C439.258 116.971 429.874 110.809 424.414 107.241C418.093 103.303 410.562 101.778 403.206 102.947ZM432.586 127.378C432.007 128.456 431.036 129.269 429.874 129.65C429.6 129.757 429.327 129.864 429.065 129.947C424.099 131.461 418.905 132.093 413.721 131.815C405.201 131.663 396.732 130.465 388.505 128.246C386.675 127.921 385.002 127.001 383.747 125.63C383.064 124.582 382.655 123.38 382.558 122.133C381.904 116.994 382.201 113.045 386.531 110.096C390.555 107.318 395.007 105.216 399.71 103.875C404.339 102.423 409.281 102.288 413.983 103.482C422.642 106.04 428.125 114.461 431.824 122.668C432.597 124.119 433.264 125.868 432.586 127.378Z" fill="#1A1A1A"/>
<path d="M374.993 217.216C368.975 221.284 362.754 225.043 356.355 228.48C364.93 224.018 374.643 222.22 384.247 223.318C386.404 223.713 388.6 223.849 390.789 223.723C391.885 223.65 392.948 223.315 393.888 222.746C394.828 222.177 395.617 221.39 396.189 220.452C397.783 217.347 395.63 213.553 392.93 211.341C390.442 209.457 387.672 207.98 384.723 206.963C383.355 206.44 381.963 205.964 380.595 205.477C370.937 202.051 361.029 197.686 354.832 189.514C350.97 184.275 348.695 178.037 348.278 171.542C347.872 165.08 348.795 158.603 350.99 152.511C351.719 150.394 352.569 148.321 353.536 146.302C353.773 145.814 354.011 145.327 354.261 144.839C354.344 144.673 356.426 141.271 356.426 141.271C356.426 141.271 353.666 145.148 353.536 145.422C353.274 145.933 353.024 146.445 352.774 146.968C350.842 150.937 349.334 155.1 348.278 159.386C347.898 161.015 347.576 162.657 347.35 164.322C346.204 171.835 347.168 179.519 350.134 186.517C355.058 197.543 365.216 205.191 374.731 212.708C375.671 213.446 376.706 214.481 376.408 215.634C376.136 216.311 375.635 216.871 374.993 217.216Z" fill="#1A1A1A"/>
<path d="M314.142 128.829C318.614 126.177 321.112 124.761 321.599 124.595C323.566 122.69 325.398 120.651 327.083 118.493C329.906 115.099 333.077 111.079 336.598 106.432C336.424 110.08 335.801 117.462 334.731 128.579C333.66 139.697 333.038 145.918 332.863 147.242C332.044 148.73 331.455 150.335 331.115 152C330.971 152.905 330.888 153.819 330.865 154.735C331.175 155.449 331.575 156.12 332.055 156.733C332.893 158.027 333.807 159.27 334.79 160.456C335.594 161.51 336.512 162.471 337.526 163.323C338.263 163.906 338.894 163.941 339.393 163.442C341.217 159.477 342.541 149.192 343.366 132.588C344.191 115.983 343.572 105.025 341.511 99.7119C341.514 99.6781 341.51 99.644 341.499 99.612C341.488 99.5799 341.47 99.5508 341.446 99.5269C341.422 99.5029 341.393 99.4846 341.361 99.4734C341.329 99.4622 341.294 99.4583 341.261 99.4621C344.75 94.1572 347.977 89.0981 350.943 84.2849C353.21 80.7509 355.287 77.0981 357.164 73.342C357.748 71.6594 358.041 69.8896 358.032 68.1085C358.021 66.9964 357.672 65.9139 357.033 65.0041C356.277 64.1166 355.346 63.3957 354.297 62.8869C353.561 62.5465 352.853 62.1488 352.18 61.6974C350.693 60.7102 349.527 60.8291 348.707 62.0781C347.886 63.327 347.517 65.5155 347.517 68.6675C346.328 76.0976 339.889 88.3131 328.201 105.314C316.513 122.315 306.684 133.306 298.715 138.285L299.214 139.023C303.996 135.349 308.98 131.946 314.142 128.829Z" fill="#1A1A1A"/>
<path d="M290.864 263.236C295.729 267.339 301.914 270.372 308.266 269.849C314.046 269.397 319.173 266.162 324.228 263.343C338.682 255.282 354.495 249.947 370.878 247.606C368.272 263.546 360.177 278.074 347.993 288.678C346.566 289.867 344.996 291.247 344.639 293.091C344.5 294.259 344.614 295.443 344.972 296.564L346.875 304.164C346.959 304.764 347.229 305.321 347.648 305.758C348.045 306.001 348.499 306.135 348.965 306.147C349.43 306.16 349.891 306.05 350.3 305.829C353 304.818 355.272 302.927 357.639 301.274C364.467 296.525 372.401 293.609 380.679 292.805C372.472 305.568 363.301 319.127 349.063 324.337C346.934 325.122 344.472 325.931 343.616 328.012C343.265 329.091 343.191 330.24 343.402 331.355C344.107 336.987 346.146 342.369 349.349 347.055C362.516 335.589 381.154 333.543 397.378 327.061C402.231 325.122 407.215 322.493 409.701 317.902V317.831L424.141 337.932C425.984 340.513 427.911 343.88 426.389 346.651C429.446 342.167 432.657 337.135 432.086 331.759C431.587 327.001 428.292 323.112 424.95 319.663C418.95 313.328 412.503 307.433 405.657 302.023C404.908 301.429 403.789 300.834 403.076 301.5C402.865 301.79 402.734 302.131 402.696 302.488C402.659 302.845 402.716 303.206 402.862 303.534C403.936 307.647 405.628 311.573 407.881 315.178C395.158 319.555 381.935 322.313 368.523 323.386C376.418 312.483 386.35 303.213 397.771 296.088C399.032 295.291 400.507 294.137 400.15 292.674C399.962 292.059 399.608 291.507 399.127 291.08C396.168 287.947 392.869 285.155 389.29 282.754C388.464 282.107 387.477 281.696 386.436 281.565C385.058 281.668 383.748 282.2 382.689 283.087C376.361 287.213 369.04 289.558 361.493 289.879C366.848 280.988 373.748 273.126 381.868 266.661C383.759 265.151 385.924 263.259 385.627 260.857C385.443 259.885 385.036 258.968 384.437 258.181C381.549 253.883 377.992 250.076 373.899 246.905C394.319 242.235 415.339 240.751 436.214 242.504L418.372 248.058C430.084 248.233 441.8 248.376 453.52 248.487C454.995 248.487 456.672 248.487 457.647 247.297C459.122 245.632 457.909 242.956 456.303 241.35C452.057 237.294 445.8 236.295 439.936 235.867L438.093 235.736C420.537 234.677 402.969 236.854 385.758 240.208C368.32 243.598 351.145 248.166 333.791 251.948C325.132 253.827 316.425 255.516 307.623 256.765C303.246 257.384 298.857 257.895 294.456 258.264C293.267 258.347 289.699 257.966 288.866 258.799C287.688 260.072 290.067 262.546 290.864 263.236Z" fill="#1A1A1A"/>
<path d="M398.294 512.863L402.386 518.037C408.741 505.238 416.204 493.02 424.688 481.521C430.99 488.633 439.152 493.843 448.256 496.564C457.36 499.285 467.043 499.41 476.214 496.924C445.527 487.207 420.905 464.596 397.366 442.627L409.475 437.631C410.593 437.167 411.854 436.525 412.091 435.335C412.125 434.841 412.046 434.346 411.86 433.886C411.675 433.427 411.388 433.016 411.021 432.683C407.334 428.52 401.291 427.104 395.749 427.675C390.206 428.246 385.044 430.554 379.953 432.826C383.521 428.698 387.411 424.024 387.339 418.552C387.268 413.081 380.667 407.848 376.266 411.107C380.024 424.642 370.533 440.343 356.806 443.305C354.951 443.697 352.953 443.935 351.454 445.089C349.955 446.243 349.277 448.764 350.705 450.013C351.65 450.653 352.794 450.932 353.928 450.798H363.443C350.716 473.397 336.574 497.186 313.154 508.272C328.01 508.165 338.786 494.641 347.231 482.425C350.785 491.251 355.347 499.637 360.827 507.415C363.301 510.924 367.333 514.492 371.187 515.159C372.096 515.352 373.038 515.333 373.939 515.104C374.841 514.875 375.677 514.442 376.385 513.838C373.542 552.15 383.414 590.426 397.212 626.323C406.549 650.6 417.682 674.139 428.244 697.904C426.793 694.423 425.358 690.938 423.938 687.449C419.323 676.089 414.827 664.683 410.557 653.193C394.321 609.398 377.883 561.333 382.986 514.029L398.294 512.863ZM369.129 507.427C367.254 504.177 365.594 500.807 364.157 497.341C362.612 493.987 361.281 490.539 360.173 487.016C361.914 485.23 363.981 483.792 366.262 482.782C369.463 481.272 372.747 479.946 376.099 478.809V489.514C375.285 489.841 374.491 490.214 373.72 490.632C372.848 491.146 372.048 491.774 371.341 492.5C370.675 492.833 370.307 493.213 370.223 493.618C370.182 493.823 370.195 494.036 370.262 494.234C370.329 494.432 370.447 494.61 370.604 494.748C370.937 495.085 371.313 495.377 371.722 495.616C372.134 495.865 372.608 495.993 373.09 495.985C373.623 495.641 374.21 495.388 374.826 495.235C375.236 495.124 375.654 495.045 376.075 494.998V498.221C375.576 498.721 374.454 500.009 372.709 502.087C371.283 503.699 370.079 505.495 369.129 507.427ZM386.542 445.957C391.034 449.256 395.316 452.831 399.364 456.662C403.591 460.627 408.773 465.603 414.91 471.589C413.754 471.017 412.563 470.52 411.342 470.103C410.568 469.796 409.773 469.546 408.963 469.353C406.713 468.838 404.375 468.838 402.124 469.353C398.375 470.014 394.675 470.928 391.05 472.089C391.217 471.423 391.336 470.971 391.419 470.721C391.476 470.58 391.561 470.453 391.67 470.346C391.778 470.24 391.908 470.157 392.049 470.103C392.704 468.104 390.586 465.583 385.698 462.502C382.699 460.763 379.829 458.811 377.11 456.662C376.537 456.2 375.852 455.9 375.124 455.794C374.533 455.699 373.927 455.786 373.387 456.044C373.158 456.141 372.957 456.294 372.803 456.489C372.649 456.685 372.547 456.916 372.507 457.162C372.424 457.661 372.721 458.149 373.387 458.648C374.053 459.148 374.577 461.229 375.124 464.37C375.699 468.41 376.033 472.481 376.123 476.561C374.458 477.061 371.222 478.056 366.417 479.547L356.711 482.544C355.379 481.878 354.225 481.26 353.226 480.677C352.382 480.153 351.458 479.772 350.49 479.547C354.235 475.105 357.726 470.455 360.946 465.618C364.268 460.647 367.666 455.338 371.139 449.692C374.458 449.038 377.277 448.407 379.608 447.824C381.939 447.242 384.247 446.623 386.542 445.957ZM372.352 505.429C373.453 504.195 374.708 503.107 376.087 502.194L375.837 507.177C375.086 507.187 374.337 507.27 373.601 507.427C372.769 507.594 372.103 507.76 371.603 507.915C371.282 507.261 371.532 506.428 372.352 505.429ZM383.676 500.207C384.092 497.828 384.378 496.472 384.544 495.973C385.99 494.848 387.53 493.849 389.147 492.987C390.557 492.238 392.011 491.574 393.501 491.001C394.262 490.574 394.873 489.922 395.249 489.134C395.403 488.754 395.438 488.337 395.349 487.937C395.26 487.538 395.051 487.175 394.749 486.898C393.941 486.077 392.905 485.517 391.776 485.292C390.195 484.964 388.556 485.05 387.018 485.542C387.518 483.21 388.017 481.176 388.517 479.44C388.924 477.96 389.42 476.506 390.004 475.086C391.835 474.587 393.655 474.135 395.475 473.719C396.943 473.352 398.447 473.144 399.959 473.1C403.773 472.434 405.391 474.464 404.812 479.19C404.263 483.807 402.961 488.303 400.958 492.5C399.626 495.814 398.548 498.261 397.723 499.839C397.135 501.061 396.379 502.194 395.475 503.205C395.308 503.205 395.237 503.205 395.237 503.324V503.704C393.405 503.871 391.419 504.121 389.29 504.442C387.161 504.763 385.056 505.191 383.057 505.691C383.115 503.849 383.326 502.014 383.688 500.207H383.676Z" fill="#1A1A1A"/>
<path d="M428.256 697.904C433.014 709.405 437.891 720.86 442.755 732.326C438.224 720.717 433.299 709.287 428.256 697.904Z" fill="#1A1A1A"/>
<path d="M337.776 453.427C341.931 442.642 345.499 433.186 348.481 425.059C349.316 422.793 350.314 420.591 351.466 418.469C352.932 415.698 353.959 412.717 354.511 409.632C360.334 407.14 366.43 405.344 372.674 404.279C378.978 403.209 385.448 402.416 392.085 401.9C400.505 401.095 408.993 401.387 417.337 402.769C426.71 404.172 431.813 404.212 432.645 402.888C433.438 401.064 432.276 399.529 429.16 398.284C424.993 396.867 420.62 396.152 416.219 396.167C402.945 395.517 385.444 398.007 363.717 403.637C341.99 409.267 328.217 412.76 322.396 414.116C320.41 414.449 319.744 414.984 320.41 415.733C321.595 416.807 322.993 417.618 324.513 418.112C326.572 418.941 328.692 419.609 330.853 420.111C333.006 420.598 334.421 420.693 335.088 420.36C336.408 419.361 337.538 418.493 338.442 417.744C339.227 417.075 340.109 416.529 341.059 416.126C341.215 418.036 341.131 419.958 340.809 421.847C340.476 424 339.976 426.748 339.322 430.054C335.175 445.469 327.61 464.58 316.627 487.385C305.645 510.191 295.277 523.837 285.524 528.326V529.075C292.327 527.41 299.004 522.513 305.554 514.385C312.545 505.571 318.552 496.019 323.467 485.898C328.859 475.043 333.628 464.219 337.776 453.427Z" fill="#1A1A1A"/>
<path d="M369.748 390.969C365.782 393.956 361.581 396.617 357.187 398.927V399.177C360.169 398.325 363.08 397.243 365.894 395.941C368.357 394.744 370.946 393.826 373.613 393.206C375.572 392.828 377.577 392.744 379.561 392.956C382.55 393.122 384.869 393.206 386.519 393.206C387.232 393.25 387.947 393.14 388.614 392.884C389.281 392.627 389.885 392.23 390.384 391.719C391.288 390.72 391.419 389.066 390.753 386.735C387.629 382.568 383.347 379.412 378.443 377.66C373.542 375.915 369.601 375.626 366.619 376.791C365.121 376.958 365.501 377.981 367.738 379.896C369.751 381.639 371.868 383.26 374.077 384.749C375.425 385.748 373.982 387.821 369.748 390.969Z" fill="#1A1A1A"/>
<path d="M664.435 244.347C674.635 262.604 682.398 281.926 690.137 307.235C705.019 355.901 707.105 397.819 702.55 439.006C697.995 480.193 682.274 522.26 673.905 541.176C665.536 560.091 656.171 568.042 646.214 583.102C636.257 598.161 632.222 603.235 619.759 616.319C607.698 628.981 582.097 645.707 582.012 645.763L610.7 616.319C589.326 632.512 574.462 646.257 566.158 653.312C557.867 660.354 514.011 684.873 513.862 684.956L532.585 670.081C532.523 670.127 522.274 677.728 504.895 680.584C487.511 683.441 484.858 680.6 484.843 680.584L497.256 674.855L487.707 672.945L501.163 668.025L487.707 665.307C487.763 665.292 497.949 662.573 503.94 659.56C509.925 656.549 519.148 649.13 519.217 649.074L497.256 652.505L511.039 639.807L519.217 631.887L501.163 636.279C501.277 636.209 540.299 611.953 559.322 594.647C578.372 577.317 588.985 562.937 603.245 541.176C617.504 519.414 625.351 506.582 633.8 481.975C642.249 457.367 645.977 435.221 646.214 404.632C646.451 374.042 639.933 343.291 628.071 307.235C621.4 286.961 613.672 269.906 603.152 253.233C603.507 252.798 603.854 252.368 604.191 251.945C607.956 256.676 612.912 262.327 617.999 266.282C623.988 270.939 633.291 275.034 640.141 277.752C643.751 279.184 647.038 280.37 649.421 281.198C650.616 281.613 651.59 281.942 652.274 282.168C652.616 282.281 652.885 282.369 653.074 282.43C653.168 282.46 653.242 282.484 653.294 282.501C653.32 282.509 653.342 282.517 653.357 282.521C653.364 282.524 653.371 282.526 653.375 282.527C653.378 282.528 653.38 282.529 653.382 282.529L653.384 282.53C653.387 282.525 653.462 282.293 656.414 273L653.386 282.53L666.241 286.615L666.413 273.128C666.415 272.992 666.491 266.882 666.039 259.271C665.779 254.881 665.317 249.504 664.435 244.347ZM335.23 74.0947C334.611 75.4684 333.859 77.0138 332.95 78.7393C329.978 84.3775 325.68 91.3306 319.96 99.6494C314.85 107.083 310.275 113.074 306.238 117.779C299.445 119.389 289.209 121.886 281.597 124.063C269.178 127.616 236.322 142.739 236.253 142.771C236.33 142.74 276.178 126.762 292.42 122.115L305.797 118.288C300.849 123.995 296.723 127.739 293.415 129.806L284.616 135.304L284.666 135.379C265.426 141.013 245.971 149.045 227.032 160.188C176.781 189.751 148.965 223.775 124.862 269.041C100.758 314.307 91.1868 367.347 91.4418 396.037C91.6968 424.728 96.511 447.675 102.901 468.607C106.046 478.91 134.962 532.468 135.024 532.583C134.97 532.503 120.113 510.155 124.862 520.169C134.23 539.922 165.851 594.528 165.921 594.648C165.831 594.556 131.482 559.306 115.314 532.583C99.1325 505.838 81.9104 451.472 81.8939 451.42C81.8978 451.441 84.505 465.448 87.7572 480.769C88.7768 485.571 108.183 532.504 108.216 532.583C108.176 532.523 95.4396 513.329 97.1713 517.306C102.435 529.393 106.75 535.525 113.404 546.906C120.05 558.274 134.377 580.275 134.411 580.326L93.5619 526.481L108.216 555.924C108.146 555.795 79.8425 503.841 72.4232 481.939C64.9948 460.011 56.2666 429.946 56.1117 396.037C55.9568 362.128 55.8125 341.059 64.8744 307.235C73.9362 273.412 87.6032 244.333 110.539 209.841C133.476 175.348 178.424 131.702 227.032 107.67C261.708 90.5261 297.895 79.0283 335.23 74.0947ZM679.29 504.588C679.275 504.637 671.027 530.641 666.211 540.141C661.417 549.596 659.989 552.415 659.973 552.445C660.008 552.389 666.638 541.739 670.315 534.487C673.998 527.223 679.281 504.628 679.29 504.588ZM655.408 417.015C655.389 417.157 649.956 459.939 645.39 476.191C640.824 492.446 639.476 497.245 639.472 497.26C639.484 497.227 646.386 478.526 649.88 466.088C653.372 453.66 655.401 417.14 655.408 417.015ZM73.1781 380.021C73.1759 380.043 71.6684 395.127 71.6683 404.935C71.6683 414.74 79.205 441.88 79.2181 441.928C79.2101 441.885 73.1782 409.457 73.1781 396.631V380.021ZM689.615 355.108C689.615 355.126 691.433 398.072 690.411 414.947C689.394 431.734 689.091 436.736 689.087 436.79C689.1 436.685 691.394 416.966 692.173 404.093C692.955 391.19 689.617 355.132 689.615 355.108ZM217.582 153.723C217.48 153.775 204.036 160.643 195.814 165.933C187.568 171.238 168.826 192.253 168.788 192.296C168.835 192.252 192.832 169.647 203.615 162.709C214.328 155.817 217.535 153.753 217.582 153.723ZM437.526 73.6729C460.846 80.3773 489.58 90.1596 514.443 101.941C531.813 110.173 547.202 119.107 561.284 129.001C552.822 124.683 542.807 120.804 542.754 120.783C542.843 120.832 567.512 134.383 574.906 142.036C575.663 142.82 576.365 143.547 577.016 144.221C575.777 149.866 575.12 156.037 574.755 161.002C568.184 159.653 559.366 158.161 551.966 158.161C544.53 158.161 535.662 159.668 529.082 161.021C522.338 162.409 517.231 163.801 517.054 163.85L515.987 164.141C506.813 158.518 496.676 153.22 484.842 147.774C479.556 145.342 474.49 143.148 469.573 141.17C469.964 139.437 470.017 137.64 469.719 135.879L469.684 135.671L469.641 135.465L469.527 134.966C468.948 132.584 467.883 130.347 466.401 128.394C461.454 121.678 457.932 118.747 452.82 114.801L450.523 113.033C444.978 108.755 435.221 102.358 429.886 98.8711L429.795 98.8115L429.703 98.7539C426.043 96.4738 422.076 94.8047 417.957 93.7783C422.805 90.2572 427.573 86.6259 432.258 82.8877C433.396 82.0834 434.39 81.0907 435.197 79.9492C436.181 78.5553 436.865 76.9705 437.203 75.2979L437.528 73.6865L437.526 73.6729ZM574.594 138.94C575.633 139.763 576.663 140.594 577.689 141.43C577.602 141.757 577.516 142.087 577.433 142.42C576.509 141.249 575.551 140.068 574.594 138.94ZM337.672 65.0137C337.581 65.9638 337.541 66.8679 337.526 67.6914C337.31 68.6965 336.909 70.002 336.268 71.6377C319.908 72.7015 300.73 74.9992 281.762 79.6631C232.476 91.782 159.809 139.566 159.715 139.628C159.795 139.561 222.833 87.2271 277.529 74.7246C299.059 69.8032 319.626 66.7568 337.672 65.0137ZM365.208 79.5752C365.229 90.874 365.112 102.173 364.854 113.472L364.848 113.73L364.85 113.805C364.774 113.879 364.694 113.95 364.609 114.015L364.251 114.289L363.919 114.594C360.745 117.512 357.823 120.686 355.183 124.081C354.68 124.101 354.177 124.121 353.672 124.144C353.767 119.375 353.716 115.104 353.504 111.353C353.295 107.646 352.914 104.105 352.238 100.94C354.787 97.0056 357.193 93.2014 359.455 89.5303C361.522 86.2998 363.441 82.9778 365.208 79.5752ZM402.702 113.417C405.495 112.541 408.474 112.442 411.318 113.126C414.364 114.096 417.304 116.942 420.078 121.647C418.15 121.871 416.203 121.934 414.258 121.83L414.078 121.82L413.9 121.816L412.456 121.78C405.654 121.555 398.896 120.589 392.301 118.903C392.296 118.769 392.294 118.645 392.294 118.53C392.295 118.43 392.298 118.341 392.301 118.266C395.405 116.137 398.834 114.525 402.453 113.492L402.578 113.456L402.702 113.417ZM399.445 64.4463C399.319 64.8848 399.212 65.3293 399.126 65.7793C398.855 65.249 398.547 64.7383 398.206 64.25C398.6 64.3091 399.013 64.3754 399.445 64.4463Z" fill="#1A1A1A"/>
<path d="M604.19 112C604.245 112.079 618.626 132.77 621.712 143.917C624.796 155.054 624.141 173.393 624.137 173.496C624.189 173.481 641.351 168.59 652.656 168.161C663.977 167.731 688.69 173.496 688.69 173.496C688.69 173.496 671.639 195.158 662.401 200.999C653.162 206.84 636.465 211.504 636.465 211.504C636.508 211.557 648.605 226.676 652.656 238.133C656.713 249.607 656.414 272.985 656.414 273C656.414 273 633.612 265.755 624.137 258.388C614.686 251.039 604.242 235.072 604.19 234.993C604.19 234.993 593.717 251.02 584.242 258.388C574.767 265.755 551.965 273 551.965 273C551.965 273 553.752 249.253 557.68 238.133C561.601 227.035 571.872 211.566 571.914 211.504C571.914 211.504 551.318 208.368 540.83 200.999C530.341 193.629 519.69 173.496 519.69 173.496C519.811 173.463 539.23 168.161 551.965 168.161C564.722 168.161 584.186 173.481 584.242 173.496C584.242 173.391 584.253 154.292 587.705 142.748C591.166 131.172 604.19 112 604.19 112Z" fill="#1A1A1A"/>
</svg>
