<svg xmlns="http://www.w3.org/2000/svg" viewBox="0 0 29.96 7.35"><g id="レイヤー_2" data-name="レイヤー 2"><g id="レイヤー_1-2" data-name="レイヤー 1"><path d="M2.83,2.43s0-.06.16-.05a1.48,1.48,0,0,1,.45.09,1.94,1.94,0,0,1,.46.2.43.43,0,0,1,.24.27v.13a1.16,1.16,0,0,1,0,.17,7.56,7.56,0,0,0,1-1c.3-.35.41-.58.34-.68s-.45-.12-1.11-.05a10,10,0,0,0-1.59.29c-.1,0-.36.15-.79.35a8,8,0,0,1-.95.39.58.58,0,0,1-.33,0,1.69,1.69,0,0,1-.38-.19,2.17,2.17,0,0,1-.3-.21C0,2.05,0,2,0,2l.4,0L.79,2l.82-.25a9.51,9.51,0,0,1,1.16-.28,13.68,13.68,0,0,1,1.77-.2,9.78,9.78,0,0,0,1.14-.08.66.66,0,0,1,.26-.07,1,1,0,0,1,.34.05,2.32,2.32,0,0,1,.65.3.7.7,0,0,1,.3.3c0,.06,0,.12-.08.18a3.06,3.06,0,0,1-.33.2,3.4,3.4,0,0,0-.42.25c-.22.15-.43.3-.65.43A7.24,7.24,0,0,1,5,3.19a5.81,5.81,0,0,1-.86.36,7.8,7.8,0,0,1-.23,1.32A11.14,11.14,0,0,1,3.57,6,5.37,5.37,0,0,1,3,6.94a1.06,1.06,0,0,1-.54.41,5.29,5.29,0,0,0,.57-2.18,13.8,13.8,0,0,0,.06-1.89A1.41,1.41,0,0,0,3,2.8C3,2.69,2.9,2.57,2.83,2.43Z"/><path d="M11.52,0a1.15,1.15,0,0,1,.29.35.82.82,0,0,1,.1.4,1.31,1.31,0,0,1-.11.42c-.07.14-.15.29-.25.46L12,1.45a2.55,2.55,0,0,1,.71-.18,1.21,1.21,0,0,1,.73.18c.28.14.4.27.35.39a.89.89,0,0,1-.17.18.48.48,0,0,0-.18.2q-.63,1.11-1,1.62c-.24.34-.54.75-.91,1.23a9.45,9.45,0,0,1-1.25,1.32,2.18,2.18,0,0,1-1.56.48A4.49,4.49,0,0,0,9.91,6a10.3,10.3,0,0,0,1-1.16c.35-.52.69-1.06,1-1.6a4.16,4.16,0,0,0,.57-1.37.56.56,0,0,0-.41,0,2.63,2.63,0,0,0-.59.29c-.23.13-.46.29-.71.46l-.89.64a.16.16,0,0,1-.21,0,.53.53,0,0,1-.15-.29,1,1,0,0,1-.05-.37c0-.11,0-.18.08-.2a3.93,3.93,0,0,1,.39-.26,6.37,6.37,0,0,0,.62-.44c.15-.13.3-.27.46-.43a2.08,2.08,0,0,0,.35-.48,1.86,1.86,0,0,0,.11-.43C11.49.14,11.51,0,11.52,0Z"/><path d="M17.68.64c-.05-.06,0-.09.11-.07a2.58,2.58,0,0,1,.47.14,2.32,2.32,0,0,1,.49.28c.15.11.22.22.22.31a7.34,7.34,0,0,1-.13.78c-.07.34-.11.55-.12.65.35-.11.76-.23,1.25-.36l.86-.23.3-.08a.84.84,0,0,1,.38,0,1.52,1.52,0,0,1,.64.27q.23.16.18.27a1.07,1.07,0,0,1-.34.24,2.54,2.54,0,0,0-.38.23c-.32.2-.76.45-1.33.76a1.92,1.92,0,0,1-1.41.32,3.22,3.22,0,0,0,1-.63,1.92,1.92,0,0,0,.66-.93,1.55,1.55,0,0,0-.81.16l-1.13.5a8.5,8.5,0,0,0-.18,1.09,1.66,1.66,0,0,0,.05.72.93.93,0,0,0,.51.58,1.64,1.64,0,0,0,1,0l.37-.12a1.09,1.09,0,0,1,.48-.06,1.37,1.37,0,0,1,.5.13,1.44,1.44,0,0,1,.46.29c.08.08.05.18-.1.31a1,1,0,0,1-.6.24,5,5,0,0,1-2.23-.14A2,2,0,0,1,18,5.5a1.19,1.19,0,0,1-.1-.53c0-.25,0-.68,0-1.26-.19.12-.36.23-.52.31a1.88,1.88,0,0,1-.45.16A1.41,1.41,0,0,1,16.08,4c-.3-.14-.47-.25-.5-.32s0-.16.2-.14a2.22,2.22,0,0,0,.46,0c.25,0,.51-.12.77-.2a8.24,8.24,0,0,0,.87-.3c0-.3,0-.6,0-.92s0-.61,0-.89a1.06,1.06,0,0,0-.08-.4A1.57,1.57,0,0,0,17.68.64Z"/><path d="M25,1.36s0-.06,0-.06h.57L26,1.24a10.56,10.56,0,0,0,1-.32l.75-.28a.83.83,0,0,1,.16-.09l.18,0a1.67,1.67,0,0,1,.68.13c.23.1.33.19.31.28a2.85,2.85,0,0,1-.31.39,1.7,1.7,0,0,0-.3.4,18,18,0,0,1-1,1.62,18.22,18.22,0,0,1-1.18,1.59,5.22,5.22,0,0,1-1.09.86A1.71,1.71,0,0,1,23.89,6a2.81,2.81,0,0,0,1-.56,8.82,8.82,0,0,0,1-1.13A8.44,8.44,0,0,0,26.77,3a11.21,11.21,0,0,0,.74-1.68,6.37,6.37,0,0,0-.87.33,5.81,5.81,0,0,1-.78.3.66.66,0,0,1-.49-.21A2,2,0,0,1,25,1.36Zm4.87,5.25a.27.27,0,0,1-.41,0,1.28,1.28,0,0,1-.4-.43c-.07-.1-.18-.25-.34-.45s-.25-.33-.29-.4-.13-.15-.28-.3l-.37-.36a1.82,1.82,0,0,1-.24-.25c-.07-.07-.08-.11-.05-.11a1.4,1.4,0,0,1,.75.15,2.72,2.72,0,0,1,.69.33,3.83,3.83,0,0,1,.48.38,1.81,1.81,0,0,1,.39.47,1.55,1.55,0,0,1,.19.53A.49.49,0,0,1,29.83,6.61Z"/></g></g></svg>