<svg xmlns="http://www.w3.org/2000/svg" viewBox="0 0 28.52 11.03"><g id="レイヤー_2" data-name="レイヤー 2"><g id="レイヤー_1-2" data-name="レイヤー 1"><path d="M2.46,3.72a.86.86,0,0,1-.41.1.79.79,0,0,1-.42-.08,3.69,3.69,0,0,0-.51-.29L.74,3.26a1.7,1.7,0,0,0-.43-.15C.1,3.06,0,3,0,3s.13-.1.41-.16A3.4,3.4,0,0,1,1,2.76h.36a2.75,2.75,0,0,1,.59.11.91.91,0,0,1,.52.41C2.56,3.5,2.57,3.65,2.46,3.72ZM1,6.13a5.13,5.13,0,0,0,.38.67,1,1,0,0,0,.42.36.14.14,0,0,0,.17,0,.89.89,0,0,0,.11-.22,1,1,0,0,0,.12.32c.06.14.11.23.13.28a1.59,1.59,0,0,1,.09.38.53.53,0,0,1,0,.27c-.09.1-.3.05-.62-.13a1.82,1.82,0,0,1-.67-.59,4.27,4.27,0,0,1-.43-1,1.17,1.17,0,0,1,0-1,1.07,1.07,0,0,0,.13.38C1,6,1,6.07,1,6.13ZM3,2.4a1.23,1.23,0,0,1,.43,0,1.09,1.09,0,0,1,.44.17A.79.79,0,0,1,4,2.84a.66.66,0,0,1,.06.27.24.24,0,0,1-.22.22.31.31,0,0,1-.29-.11,2.83,2.83,0,0,0-.41-.49C3,2.52,2.88,2.42,3,2.4Zm.88-.2a.72.72,0,0,1,.38-.05,1.16,1.16,0,0,1,.46.12.91.91,0,0,1,.19.2.38.38,0,0,1,0,.27.22.22,0,0,1-.22.18.26.26,0,0,1-.23-.12,2.16,2.16,0,0,0-.25-.27L4,2.33l-.14-.11S3.81,2.2,3.84,2.2Z"/><path d="M10,4.94a1.8,1.8,0,0,1-.18.43l-.48.76c0,.79,0,1.58,0,2.34s.11,1.4.19,1.9a.74.74,0,0,1,0,.35c0,.15-.1.2-.17.15A2.69,2.69,0,0,1,8.68,10c-.26-.47-.34-.78-.24-.94a2.06,2.06,0,0,1,.28.31c.18.21.26.24.25.09a5.83,5.83,0,0,1,0-.8c0-.4,0-1.07.07-2l-.66.82-.5.62a1.17,1.17,0,0,0-.12.21,2,2,0,0,1-.17.3.44.44,0,0,1-.19.17.28.28,0,0,1-.22,0,2.31,2.31,0,0,1-.54-.45C6.47,8.09,6.44,8,6.55,8a1.77,1.77,0,0,0,.52-.12,1.45,1.45,0,0,0,.5-.31l.7-.73L9,6.07V5.44c0-.22,0-.48,0-.8L8,5.11l-.6.28a.92.92,0,0,0-.27.12,1.35,1.35,0,0,1-.32.14.3.3,0,0,1-.23,0,.36.36,0,0,1-.15-.25,3.87,3.87,0,0,0,1.18-.51A10.06,10.06,0,0,0,9.07,4c0-1,0-1.86,0-2.5s-.08-1-.17-1A.23.23,0,0,1,8.79.3a.51.51,0,0,1,0-.17A.16.16,0,0,1,8.8,0s.06,0,.12,0a4.64,4.64,0,0,0,.58.5c.35.28.51.47.5.56a5.65,5.65,0,0,0-.3,1,12.17,12.17,0,0,0-.18,1.36.92.92,0,0,1,.39.31q.19.26,0,.39l-.19.09-.29.17a5.62,5.62,0,0,0,0,.66c0,.29,0,.48,0,.56l.4-.47A3,3,0,0,0,10,4.9ZM13.87,6a3.12,3.12,0,0,1-.06.41c0,.15-.06.31-.1.47.23-.08.45-.16.65-.21s.39-.09.55-.12a7.18,7.18,0,0,1,.93,0q.48,0,.54.15a.48.48,0,0,1,0,.26c0,.07-.07.09-.17.07a3.59,3.59,0,0,0-1.33-.11,4.91,4.91,0,0,0-1.27.31,7,7,0,0,1-1,2,1.93,1.93,0,0,1-1.44.9l0-.1A3.94,3.94,0,0,0,12.28,9a4.72,4.72,0,0,0,.78-1.55c-.25.12-.55.27-.9.47l-.77.43a4.4,4.4,0,0,1-.5.21.75.75,0,0,1-.44,0,1.69,1.69,0,0,1-.27-.13A.54.54,0,0,1,10,8.33q-.06-.08,0-.12s.06,0,.14,0a2.37,2.37,0,0,0,1.09-.26c.5-.19,1.15-.46,2-.79,0-.13,0-.25,0-.36a1.62,1.62,0,0,0,0-.3l-1.14.72a1.61,1.61,0,0,1-.51.26s.28-.22.7-.53.74-.54.94-.7a.51.51,0,0,0,0-.13.62.62,0,0,1,0-.13,3.09,3.09,0,0,0-.6.24l-.39.2c-.09,0-.17,0-.25-.14a.27.27,0,0,1,0-.34c.12-.2.27-.46.43-.77a1.06,1.06,0,0,0,.17-.75s0,0,.09,0a.55.55,0,0,1,.18.1,1.07,1.07,0,0,1,.18.19.26.26,0,0,1,0,.21l-.16.48c0,.12,0,.16.18.11l.79-.32a2.4,2.4,0,0,1,.66-.23l.15.07.21.16a.73.73,0,0,1,.15.17.1.1,0,0,1-.06.13,1.2,1.2,0,0,0-.38.15ZM14.8,2.8s0,0,0,0l0,0-.09-.09-.06,0a.25.25,0,0,1-.1-.08.21.21,0,0,1-.05-.12s0-.05.07-.07a.43.43,0,0,1,.2,0,2.54,2.54,0,0,1,.94.59c.36.33.44.62.26.87-.12,0-.26-.08-.44-.29s-.38-.43-.61-.68a1,1,0,0,1-.22.42,1,1,0,0,1-.5.3,7.51,7.51,0,0,0-1.32.52,9.45,9.45,0,0,0-1.14.56c-.18.12-.32.16-.42.11a.39.39,0,0,1-.19-.3,1.24,1.24,0,0,1,0-.43c0-.13.06-.21.11-.21a.57.57,0,0,0,.48-.17,1.66,1.66,0,0,0,.41-.52c0-.08.21-.38.53-.92a2.27,2.27,0,0,0,.46-1.06l0-.12a1.57,1.57,0,0,0,0-.16s0-.07,0-.07.06,0,.12,0a1.12,1.12,0,0,0,.33.2l.52.24a1.16,1.16,0,0,1,.37.24c.06.08,0,.17-.08.26a4.59,4.59,0,0,0-.49.4l-.62.6-.48.52c-.12.14-.15.21-.09.19l1-.25A2.51,2.51,0,0,0,14.8,2.8Zm1.86,7.52c0,.14-.09.2-.18.22a.46.46,0,0,1-.28-.09l-.47-.37-.42-.36a.33.33,0,0,0-.11-.33,2.85,2.85,0,0,0-.46-.4,3.5,3.5,0,0,1-.4-.32c-.06-.07,0-.11.07-.13a2,2,0,0,1,1.42.62C16.42,9.64,16.69,10,16.66,10.32Z"/><path d="M22.36,4.45c.09,0,.06.2-.11.49A9.22,9.22,0,0,1,21.51,6c0,.71,0,1.36,0,1.94a6.85,6.85,0,0,0,.07,1.11c.08.5.13.89.16,1.16s0,.39-.18.38-.47-.29-.87-.84A2.65,2.65,0,0,1,20,8.66a6.42,6.42,0,0,1,.44.47c.24.27.37.34.4.21s0-.45.07-1S21,7.3,21,6.67c-.36.42-.7.82-1,1.19s-.51.56-.56.61a.44.44,0,0,1-.32-.06,1.07,1.07,0,0,1-.31-.25c-.09-.11-.13-.19-.11-.26s.12-.07.29,0,.31-.14.74-.5.87-.75,1.31-1.17c0-.22,0-.45,0-.67s0-.51,0-.83a6.93,6.93,0,0,1-.78.38,2.4,2.4,0,0,1-.56.21,1.68,1.68,0,0,1-.45,0,1.77,1.77,0,0,1-.49-.06c-.14,0-.22-.06-.23-.11s.07-.1.26-.15a4,4,0,0,0,1-.52c.44-.3.86-.6,1.26-.89,0-.82-.05-1.5-.1-2a3.32,3.32,0,0,0-.19-1q-.1-.24.06-.18a1.87,1.87,0,0,1,.42.29,5.38,5.38,0,0,1,.48.47c.13.15.19.25.18.31a3.2,3.2,0,0,0-.15.76c-.05.36-.09.8-.12,1.3l.48.25c.13.07.14.17,0,.3a1.72,1.72,0,0,1-.22.17l-.32.22c0,.21,0,.42,0,.64s0,.44,0,.66c.23-.28.42-.52.56-.71A2.2,2.2,0,0,0,22.36,4.45ZM25.6,8.26a3.43,3.43,0,0,1-.52-.44c-.23-.22-.35-.33-.36-.35a1.2,1.2,0,0,1-.16-.15s0-.07,0-.09.07,0,.16,0a2.07,2.07,0,0,1,.44.08,1.43,1.43,0,0,1,.49.32c.15.15.23.24.26.26A19.33,19.33,0,0,0,27,6.15c.25-.46.26-.65,0-.58a4.49,4.49,0,0,0-1.64.77,6.69,6.69,0,0,0-1.09,1c-.06,0-.12,0-.19,0a.76.76,0,0,1-.16-.3.87.87,0,0,1,0-.39A.21.21,0,0,1,24,6.36a2.46,2.46,0,0,0,1.08-.77q.7-.72.6-1a.22.22,0,0,1,0-.1.15.15,0,0,1,0-.06,1.38,1.38,0,0,1-.42-.32.46.46,0,0,1-.19-.35,10,10,0,0,1,.17-1c.12-.59.17-.9.17-.92s0-.16,0-.16.1,0,.16.08a.76.76,0,0,1,.17.22.25.25,0,0,1,0,.2.89.89,0,0,0-.09.29c0,.14-.07.31-.11.48s-.05.29-.06.37,0,.08.07,0,.13-.33.29-.79a2.56,2.56,0,0,1,.41-.81s0,.05-.07.25l-.19.53c-.05.15-.11.33-.16.51a.84.84,0,0,0-.06.39c0,.05,0,.2,0,.48a1.51,1.51,0,0,1,0,.55,1.37,1.37,0,0,1,.6.2c.2.14.25.25.14.35a1.48,1.48,0,0,0-.27.19l-.26.23A.71.71,0,0,0,26,5.6s0,.05.06,0,.42-.14.78-.24a4.07,4.07,0,0,1,.64-.15l.3.06a3.66,3.66,0,0,1,.43.15.93.93,0,0,1,.32.2c.06.07.05.13,0,.19a1.74,1.74,0,0,0-.53.46c-.2.24-.38.47-.55.7l-.62.87-.45.66c-.15.17-.36.41-.65.72a9.11,9.11,0,0,1-.94.92,4.37,4.37,0,0,1-1.06.71,1.26,1.26,0,0,1-1,.09l0-.09c.32.11.72-.08,1.21-.56a15.83,15.83,0,0,0,1.53-1.81Zm-.93-5.63a1.94,1.94,0,0,1-.1.66,5,5,0,0,0-.14.61c0,.05,0,.17,0,.39a1.54,1.54,0,0,0,0,.47,1.34,1.34,0,0,1,0,.21.66.66,0,0,1,0,.21c0,.06-.06.09-.11.08s-.1,0-.17-.14S24,5,23.88,4.78a4.29,4.29,0,0,1-.35-.49,1.1,1.1,0,0,1-.13-.47.76.76,0,0,1,.15-.48c.15-.27.28-.52.4-.78l.29-.65c.08-.18.14-.28.17-.28s.07.06.11.21a9,9,0,0,1-.24.94,3.82,3.82,0,0,0-.21,1,1.64,1.64,0,0,0,.29-.47C24.5,3,24.6,2.81,24.67,2.63Zm3.48,1a.83.83,0,0,1,0,.28A.2.2,0,0,1,28,4l-.54.06a1.61,1.61,0,0,0-.81.29s.05-.12.2-.31.17-.31.06-.36a.56.56,0,0,1-.29-.35,1.31,1.31,0,0,1,0-.49c0-.17.06-.41.12-.7s.1-.52.12-.67-.11-.12-.08-.16a.37.37,0,0,1,.21,0,.55.55,0,0,1,.27.1.16.16,0,0,1,.1.17,6.14,6.14,0,0,0-.13,1c0,.44,0,.69.08.75a2.67,2.67,0,0,0,.44.1C28,3.43,28.12,3.51,28.15,3.61Z"/></g></g></svg>