<svg xmlns="http://www.w3.org/2000/svg" viewBox="0 0 30.41 10.71"><g id="レイヤー_2" data-name="レイヤー 2"><g id="レイヤー_1-2" data-name="レイヤー 1"><path d="M1.53,1c0,.09,0,.23.08.43s.08.3.09.32a1.58,1.58,0,0,0,.13.31A1.53,1.53,0,0,1,2,2.37l.21-.18L2.39,2a1.1,1.1,0,0,0,.07-.17,1.3,1.3,0,0,0,.06-.19,1.21,1.21,0,0,1,.14.47.72.72,0,0,1-.06.37,1.66,1.66,0,0,1-.25.3A1.77,1.77,0,0,1,2,3a3.94,3.94,0,0,0,0,.47,6.43,6.43,0,0,0,0,.76c0,.21,0,.43,0,.66s0,.47-.05.7c.36-.18.73-.34,1.12-.49a3.62,3.62,0,0,1,.89-.24,3.21,3.21,0,0,1,1.2,0,1.18,1.18,0,0,1,.84.64A1.84,1.84,0,0,1,6,6.83a1.19,1.19,0,0,1-.7.91c-.66.2-1.12.08-1.39-.37a3.07,3.07,0,0,1-.3-1.81,2.36,2.36,0,0,0,0,.32,3.53,3.53,0,0,0,.05.41,1.65,1.65,0,0,0,.11.36A1.42,1.42,0,0,0,4,7a.77.77,0,0,0,.65.27A.66.66,0,0,0,5.24,7,1.24,1.24,0,0,0,5.3,5.68a1.07,1.07,0,0,0-1.16-.5,3.34,3.34,0,0,0-1.33.47l-1,.59s0,.14,0,.26v.25a1.54,1.54,0,0,1-.24.85c-.12.17-.31.2-.56.09a1.49,1.49,0,0,1-.52-.38C.32,7.15.25,7,.27,6.94a1.18,1.18,0,0,1,.21-.42,2.11,2.11,0,0,1,.41-.37A.24.24,0,0,1,1,6.07L1.13,6c0-.33,0-.8.06-1.4s.05-1,.06-1.28H1.18l-.05,0a1.53,1.53,0,0,1-.53,0,1.34,1.34,0,0,1-.4-.16C.1,3.06,0,3,0,2.94s0-.08.1-.06a1.28,1.28,0,0,0,.39,0A3.13,3.13,0,0,0,1,2.77a.9.9,0,0,1,.16,0l.14,0v0a7.07,7.07,0,0,1,.06-.87A3.11,3.11,0,0,1,1.53,1ZM1.11,6.57l-.22.07-.17.05a.25.25,0,0,0-.22.14.16.16,0,0,0,.07.22c.15.11.27.14.37.08a.44.44,0,0,0,.16-.38ZM4.29,2.28A.66.66,0,0,1,4.8,2a1.44,1.44,0,0,1,.65.07A1.1,1.1,0,0,1,6,2.56a.66.66,0,0,1,.11.65.16.16,0,0,1-.23,0L5.45,3a.86.86,0,0,0-.32-.11l-.22-.05.24-.08a.31.31,0,0,0,.12-.09.81.81,0,0,0-.39-.28A1,1,0,0,0,4.29,2.28Z"/><path d="M12.33,4.56a3.92,3.92,0,0,0-.48.57,4.94,4.94,0,0,1-.39.5l-.15.12a1.13,1.13,0,0,0-.19.19c0,.64-.06,1.28-.07,1.93s0,1,0,1.22a.87.87,0,0,1,0,.43.2.2,0,0,1-.2.11A1.59,1.59,0,0,1,10.55,9a1.79,1.79,0,0,1,0-.8c0-.1,0-.3,0-.61s0-.71.06-1.2l-1,.93a4.29,4.29,0,0,0-.51.54A.5.5,0,0,1,8.89,8c-.07,0-.1,0-.1-.09s0-.2-.08-.5,0-.47,0-.49a.7.7,0,0,0,.32-.18,2.41,2.41,0,0,0,.45-.54q.27-.43.54-.93a3.31,3.31,0,0,0,.34-.76,8.53,8.53,0,0,0-1.09.56,1.93,1.93,0,0,0-.59.47,1,1,0,0,1-.45.1,1.1,1.1,0,0,1-.42,0c-.12,0-.19-.08-.22-.14s0-.08.16-.08a13.48,13.48,0,0,0,1.28-.58c.75-.37,1.29-.61,1.63-.75l0-1.5a6.49,6.49,0,0,0-.46.47,1.4,1.4,0,0,0-.24.45,1.26,1.26,0,0,1-.21.29s-.1,0-.18-.06a1.7,1.7,0,0,1-.33-.48c-.09-.18-.08-.3,0-.35a.14.14,0,0,1,.09.05.6.6,0,0,0,.11.12.26.26,0,0,0,.13.09.44.44,0,0,0,.15,0,3.49,3.49,0,0,0,.45-.3c.18-.13.34-.26.48-.38V2.12a.58.58,0,0,1,0-.15c0-.37,0-.71,0-1a1.75,1.75,0,0,0-.12-.61A.17.17,0,0,1,10.55.2a.24.24,0,0,1,0-.12A.11.11,0,0,1,10.61,0a.13.13,0,0,1,.13,0,2,2,0,0,1,.56.41c.26.24.37.39.33.46a2.43,2.43,0,0,0-.2.73c-.08.42-.12.68-.13.77a1.78,1.78,0,0,0-.06.35c0,.19,0,.43,0,.73a8.66,8.66,0,0,0,.56-.83A1.88,1.88,0,0,0,12,2a1.74,1.74,0,0,0,0-.18c0-.1,0-.14.13-.12A2.21,2.21,0,0,1,12.8,2q.31.21,0,.42a4.49,4.49,0,0,0-.91.55,5.17,5.17,0,0,0-.71.69l0,.21a.45.45,0,0,1,.18-.07.52.52,0,0,1,.17,0,1.48,1.48,0,0,1,.38-.12.42.42,0,0,1,.34.09.4.4,0,0,1,.1.22c0,.08,0,.11-.13.11a1.47,1.47,0,0,0-.42,0,3.17,3.17,0,0,0-.48.1.48.48,0,0,1,.21.12s0,.09,0,.14a.63.63,0,0,0-.18.14,1.35,1.35,0,0,0-.18.25l0,.71c.17-.14.35-.3.53-.47s.39-.35.61-.56Zm-1.66.88L10.28,6a2.64,2.64,0,0,0-.21.32l.24-.14.36-.23ZM18,5.16a3.52,3.52,0,0,0-.9-.16,5.35,5.35,0,0,0-1,.07c0,.27,0,.88,0,1.84s0,1.48,0,1.6-.11.58-.2,1.17a10.19,10.19,0,0,0-.14,1l-.06,0c0-.34-.06-1.15-.13-2.4S15.29,6,15.24,5.22a9.33,9.33,0,0,0-1.41.47,5.88,5.88,0,0,0-1.17.66.53.53,0,0,0-.16.2c0,.07-.07.1-.09.08l-.21-.22c-.09-.09-.13-.15-.11-.19a.77.77,0,0,0,0-.2c0-.09,0-.14.07-.14a.87.87,0,0,0,.54-.27c.16-.16.38-.4.66-.73a2,2,0,0,1,.21-.24.72.72,0,0,0,.18-.18s0-.06,0-.08a.85.85,0,0,0-.29,0l-.17-.07a.34.34,0,0,1-.14-.09.12.12,0,0,1-.06-.09s0,0,.07,0,.24,0,.56-.12a3.24,3.24,0,0,1,.58-.11.54.54,0,0,1,.35.14c.12.09.12.18,0,.26a2.74,2.74,0,0,0-.54.37c-.23.18-.46.38-.69.59s-.4.37-.51.49-.1.17,0,.13.51-.21,1-.39A10.42,10.42,0,0,1,15.21,5c0-.18-.06-1-.13-2.4A7.06,7.06,0,0,0,14.82.31c-.09-.06-.11-.13-.07-.19A.43.43,0,0,1,15.08,0a2,2,0,0,1,.63.4c.32.24.47.38.46.42a10.43,10.43,0,0,0-.09,1.48c0,.85,0,1.66-.06,2.44a3.43,3.43,0,0,0,.38-.08l.3,0,.47,0,.54.1A.84.84,0,0,1,18,5C18.09,5,18.07,5.08,18,5.16Zm-3.35-2.4a1.24,1.24,0,0,0-.42.27l-.3.27h-.06a.87.87,0,0,0,.23-.46c0-.15,0-.21-.17-.19a.32.32,0,0,1-.13,0,.25.25,0,0,1-.12-.07.1.1,0,0,1-.06-.09s0-.05.07-.07a1.21,1.21,0,0,1,.41-.17.54.54,0,0,1,.37,0,.67.67,0,0,1,.27.26C14.77,2.62,14.74,2.7,14.61,2.76Z"/><path d="M24,4.72a3.34,3.34,0,0,1-.52.71c-.3.35-.6.69-.9,1s-.68.73-1.14,1.21-.7.77-.75.85a1.19,1.19,0,0,1-.39.37.47.47,0,0,1-.41,0,.64.64,0,0,1-.33-.34c-.06-.14-.1-.25-.13-.3s0-.06,0-.07,0,0,.05,0h.12a.49.49,0,0,0,.32.08A1,1,0,0,0,20.37,8l.56-.46,1-.86-.12-.07a.43.43,0,0,1-.14-.24,1.22,1.22,0,0,1,0-.41l0-.1c-.25.23-.44.42-.57.56a2,2,0,0,0-.27.32,1.12,1.12,0,0,1-.18.14s-.05,0-.06,0a.26.26,0,0,1,.05-.15.93.93,0,0,1,.16-.22c.17-.22.33-.44.5-.65s.3-.42.41-.59a1,1,0,0,1,0-.18c0-.07,0-.14,0-.24a1.61,1.61,0,0,0-.53.18l-.43.22h-.15s0,0,0-.09A.59.59,0,0,1,20.75,5a4,4,0,0,1,.44-.35,4.25,4.25,0,0,1,.58-.35,3.8,3.8,0,0,0-.09-.57.64.64,0,0,0-.14-.32.92.92,0,0,1-.13-.21.2.2,0,0,1,0-.15s.09-.08.19-.11l.58.33a.51.51,0,0,1,.23.37c0,.05,0,.1,0,.15a1.27,1.27,0,0,0,0,.2l.11,0a.14.14,0,0,1,.09,0,1.85,1.85,0,0,1,.54.16c.11.06.12.16,0,.29l-.33.32-.57.58c0,.23-.05.44-.07.65s0,.37-.05.5v0c.45-.43.84-.83,1.18-1.2A5.11,5.11,0,0,0,24,4.43s0-.08.05-.08,0,0,0,.05a.92.92,0,0,1,0,.15Zm-.82-2.83a2.44,2.44,0,0,0-.54.33q-.32.24-.51.42s0-.05.05-.2.07-.22,0-.19l-.93.24a1.58,1.58,0,0,1-.72.09.25.25,0,0,1-.09-.07.06.06,0,0,1,0-.06l.15,0A8.09,8.09,0,0,0,21.54,2c.4-.21.62-.37.66-.47s.17-.15.4-.16a.68.68,0,0,1,.47.09,1.12,1.12,0,0,1,.29.26C23.41,1.75,23.36,1.82,23.21,1.89Zm6.85,5.85a.65.65,0,0,1,.29.2.26.26,0,0,1,0,.23.25.25,0,0,1-.2.12.8.8,0,0,1-.38-.06,5.78,5.78,0,0,0-2.57-.44,4,4,0,0,0-2,.65,3.28,3.28,0,0,1-.58.37.46.46,0,0,1-.41,0,2.16,2.16,0,0,1-.46-.25q-.18-.15-.12-.27l.64-.07a3.06,3.06,0,0,0,.56-.14,4,4,0,0,1,.73-.27c.29-.07.61-.13,1-.19v0a.08.08,0,0,1,0,0,.87.87,0,0,1,0-.22c0-.09,0-.26,0-.5l-.86.66a5.39,5.39,0,0,1-.54.38.74.74,0,0,1-.2.06s0,0,0,0l.1-.12.17-.11.6-.55c.31-.29.55-.54.73-.74a2.09,2.09,0,0,0,0-.26V5.89A2.69,2.69,0,0,0,26,6a2.72,2.72,0,0,0-.42.21l-.13,0a.07.07,0,0,1-.06,0,.15.15,0,0,1,0-.11,1.78,1.78,0,0,1,.41-.33c.21-.13.42-.24.64-.35l0-1-.24.09-.12,0a.37.37,0,0,1-.13,0l-.17-.08a.38.38,0,0,1,.1.22s-.07.06-.19,0-.58-.56-1-1.39A6.23,6.23,0,0,1,24,1.67c0-.07.07-.09.21-.09a1.17,1.17,0,0,1,.41.1,7.7,7.7,0,0,1,1.75-.63A4.21,4.21,0,0,1,28.11,1a.83.83,0,0,0,.35,0,.44.44,0,0,1,.36.08,3,3,0,0,1,.54.46c.13.13.13.25,0,.35a2.61,2.61,0,0,0-.6,1.19q-.32,1-.33,1.08c-.1.22-.19.33-.27.32a.89.89,0,0,1-.33-.2.44.44,0,0,1-.08-.11.5.5,0,0,1,0-.13h0l-.37.12-.38.16c0,.19,0,.36,0,.52s0,.31,0,.46a.33.33,0,0,1,.14-.06l.12,0h.27a.6.6,0,0,1,.36.07.49.49,0,0,1,.23.29c0,.1-.05.22-.23.33a1.87,1.87,0,0,0-.36.21c-.14.1-.32.23-.53.4,0,.15,0,.32,0,.49s0,.29,0,.3a.71.71,0,0,1,0,.16l0,.13c.26,0,.55-.09.87-.13l.57,0a3,3,0,0,1,.82.08A5.06,5.06,0,0,1,30.06,7.74ZM24.87,2a6.6,6.6,0,0,0,.29,1c.15.43.29.81.43,1.14a.11.11,0,0,1,0,0,.05.05,0,0,1,0,0,5.54,5.54,0,0,1,.45-.7c.25-.36.31-.53.18-.53a1.69,1.69,0,0,0-.28,0l-.3,0a.29.29,0,0,1-.12,0s0-.07.12-.12a1.82,1.82,0,0,1,.26-.16c.12-.05.27-.12.43-.17,0-.27-.06-.47-.07-.58s0-.18-.05-.19a.39.39,0,0,1-.14-.1.14.14,0,0,1-.05-.09,0,0,0,0,1,0-.05h.09l.52.31c.32.19.5.35.53.48h0l.08,0a.39.39,0,0,1,.18.28c0,.1,0,.18-.18.23a.28.28,0,0,0-.12,0,.64.64,0,0,0-.15.12c0,.18,0,.34-.06.49a3.59,3.59,0,0,0,0,.47L27,3.77a.2.2,0,0,1,.08,0,.45.45,0,0,1,.28-.11.52.52,0,0,1,.27.1,2.69,2.69,0,0,1,.05-.6c0-.23.08-.49.13-.79a4.41,4.41,0,0,0,.08-.69.38.38,0,0,0-.11-.32,1.48,1.48,0,0,0-1.4-.08A5.17,5.17,0,0,0,24.87,2Zm1.56,2a2.63,2.63,0,0,1,0-.33c0-.13,0-.23,0-.3a1,1,0,0,0-.24.21L26,3.77a.63.63,0,0,0-.18.28c0,.07.05.09.19.08a.76.76,0,0,1,.21-.08A.8.8,0,0,1,26.43,4Z"/></g></g></svg>