<svg xmlns="http://www.w3.org/2000/svg" viewBox="0 0 21.65 11.38"><g id="レイヤー_2" data-name="レイヤー 2"><g id="レイヤー_1-2" data-name="レイヤー 1"><path d="M2.18,3.11a2.43,2.43,0,0,0-1,.72q-.52.58-.45.78A2.48,2.48,0,0,0,.94,5a.66.66,0,0,1,.11.5,14.09,14.09,0,0,0-.42,1.7c-.18.84-.14,1.18.11,1a3.81,3.81,0,0,0,.52-1.11c.2-.6.33-1,.39-1.27h.07c0,.17-.16.83-.34,2s-.26,1.74-.26,1.81,0,0-.12,0a1,1,0,0,1-.27-.08,1,1,0,0,1-.29-.19.7.7,0,0,1-.19-.28A4.08,4.08,0,0,1,0,7.28,5.51,5.51,0,0,1,.3,5.78a1.62,1.62,0,0,0,0-.62.91.91,0,0,1,.16-.69S.61,4.28.81,4s.37-.47.51-.67a1.48,1.48,0,0,0,.24-.6.39.39,0,0,0-.14-.42.09.09,0,0,1-.07-.08.32.32,0,0,1,0-.14.16.16,0,0,1,0-.11s.07,0,.15,0a1.86,1.86,0,0,1,.68.52C2.44,2.82,2.44,3,2.18,3.11Zm2,5.37,0,0a3.17,3.17,0,0,1-.66-1.09c-.26-.58-.39-.9-.42-1A.75.75,0,0,1,3,6.11c0-.14,0-.2.07-.18l.35.13a.7.7,0,0,1,.42.3,7.21,7.21,0,0,1,2-.62,4.71,4.71,0,0,1,1.92-.1,5,5,0,0,1,.61.46c.27.24.37.37.31.4s-.29.27-.59.71L7.49,8A4.41,4.41,0,0,1,8,8.07l.5.12a2.31,2.31,0,0,1,.34.22,2.65,2.65,0,0,1,.34.32c.08.1.12.19.09.26s-.13.09-.3.07L8.1,8.67A3.87,3.87,0,0,0,7,8.31a5.41,5.41,0,0,0-2,.23,5.63,5.63,0,0,0-1.47.61,1.48,1.48,0,0,1-.33.18.62.62,0,0,1-.38,0,3.29,3.29,0,0,1-.39-.17A1.46,1.46,0,0,1,2.12,9Q2,8.88,2.06,8.85s.12,0,.27,0A3.08,3.08,0,0,0,3,8.77c.26,0,.56-.13.9-.22l.1,0ZM6,4.31l-1.38.85a3.83,3.83,0,0,1-1.07.54h0l1.15-.87q.72-.54.09-.39a.19.19,0,0,1-.12,0,.15.15,0,0,1-.08-.08c0,.05,0,.11,0,.18a1.41,1.41,0,0,1,0,.18s0,.07-.07.06a.49.49,0,0,1-.19-.15,9,9,0,0,1-.78-1.19,5.26,5.26,0,0,1-.53-1c0-.07,0-.09.23-.08a1.28,1.28,0,0,1,.49.16c.22-.09.47-.18.73-.26S5,2,5.37,2a8.76,8.76,0,0,1,.91-.16,1.68,1.68,0,0,1,.7.05,2.55,2.55,0,0,1,.46.41c.17.2.23.32.15.37A.8.8,0,0,0,7.3,3c-.12.2-.25.46-.42.78a7,7,0,0,1-.41.7c-.1.15-.18.19-.24.13l-.17-.17A.5.5,0,0,1,6,4.31ZM4.37,8.25a.51.51,0,0,1,0,.09.13.13,0,0,1,0,.06c.11,0,.28-.08.52-.14l.47-.1a.34.34,0,0,1,0-.12c0-.06,0-.13,0-.21A2.35,2.35,0,0,0,5.76,7a1.68,1.68,0,0,0,.17-1s0,0,0-.06a.08.08,0,0,1,0,0,3.81,3.81,0,0,0-1.1.33A4.88,4.88,0,0,0,4,6.83h0c.05.23.13.51.23.83A5,5,0,0,0,4.37,8.25Zm.18-4a.08.08,0,0,1,0-.08.19.19,0,0,1,.08-.07,3,3,0,0,1,.59-.23,2.84,2.84,0,0,1,.64-.13H6s0,0,0,0,.08,0,.13-.08a1,1,0,0,0,.15-.27,5.65,5.65,0,0,0,.28-1c.06-.31,0-.47-.14-.48a4.24,4.24,0,0,0-1.32.26A2.75,2.75,0,0,0,4,2.75H4c.09.28.2.59.32.93S4.52,4.22,4.55,4.29ZM5.88,3l-.54.38-.57.39A2.46,2.46,0,0,0,5,3.39c0-.07,0-.08-.24,0H4.64a.31.31,0,0,1-.13-.06.09.09,0,0,1,0-.09.32.32,0,0,1,.15-.09,2.83,2.83,0,0,1,.63-.25,1.19,1.19,0,0,1,.46-.08.67.67,0,0,1,.19.1S5.94,3,5.88,3ZM5.34,6.74a2,2,0,0,1-.11.3.7.7,0,0,0-.06.45,1,1,0,0,1,0,.3c0,.08-.08.08-.2,0a1.09,1.09,0,0,1-.4-.53.64.64,0,0,1,0-.62.2.2,0,0,1,.19,0q.12,0,.12.12a.2.2,0,0,0,0,.11A.23.23,0,0,0,5,7a.14.14,0,0,0,.15,0A.59.59,0,0,0,5.34,6.74Zm.25,1.39A6.19,6.19,0,0,1,6.25,8,5.54,5.54,0,0,1,7,8a.81.81,0,0,1-.13-.29c0-.1,0-.17.05-.21s.2-.35.28-.82S7.25,6,7.13,6a2.12,2.12,0,0,0-.44,0l-.46,0a1.32,1.32,0,0,1,.19.29.37.37,0,0,1,0,.31,6.28,6.28,0,0,0-.36.73A5.67,5.67,0,0,1,5.59,8.13Z"/><path d="M14.92,7.23a5.8,5.8,0,0,0-.83,1.13A4.6,4.6,0,0,1,13,9.63a2.5,2.5,0,0,1-.57.27,1.2,1.2,0,0,1-.62,0v0c.34,0,.73-.25,1.17-.79a6,6,0,0,0,1-1.78,1.56,1.56,0,0,0-.61.2,1.48,1.48,0,0,1-.59.19.1.1,0,0,1-.08,0,.14.14,0,0,1,0-.06.09.09,0,0,1,0-.07.19.19,0,0,1,.09,0,6.51,6.51,0,0,0,1-.54c.41-.27.64-.39.69-.37a1,1,0,0,1,.37.28C15,7,15,7.15,14.92,7.23Zm0-1.81a.11.11,0,0,1-.05.09.19.19,0,0,1-.13,0,.61.61,0,0,1-.14-.07.3.3,0,0,1-.1-.09,5.32,5.32,0,0,1-.22-.89c-.1-.53-.16-.85-.17-1A.81.81,0,0,0,14,3.23a1.29,1.29,0,0,0-.2-.23.14.14,0,0,1-.08-.09.17.17,0,0,1,0-.12.08.08,0,0,1,.07-.07.37.37,0,0,1,.19,0l0,0a8.69,8.69,0,0,0,1-1.25c.45-.64.61-1,.49-1.15a.25.25,0,0,1-.07-.12.15.15,0,0,1,0-.11A.11.11,0,0,1,15.42,0a.18.18,0,0,1,.13,0l.25.21a.79.79,0,0,0,.34.21c.08,0,.13,0,.13.12a.26.26,0,0,1-.08.2l-1,.91c-.63.59-1,1-1.21,1.08l.09,0,.14.09a2.59,2.59,0,0,1,.28.24.61.61,0,0,1,.11.36c0,.06.06.39.17,1S15,5.36,15,5.42Zm1.71,1a.37.37,0,0,0-.06.16q0,.13-.06.33a9.14,9.14,0,0,1,.78.5c.27.19.45.32.54.4a9.53,9.53,0,0,0,1.54,1,10,10,0,0,0,2.24,1l-.07.06A10.78,10.78,0,0,1,20,9.82c-.72,0-1.14-.11-1.26-.29a10.53,10.53,0,0,0-.9-1c-.48-.46-.91-.86-1.32-1.18,0,.06,0,.19,0,.38s0,.32,0,.39,0,.7,0,1.59,0,1.35,0,1.39a.26.26,0,0,1-.09.23q-.09.06-.24-.06a4.17,4.17,0,0,1-.66-.62l-1-1.11.1,0a3.14,3.14,0,0,0,.54.23,3.3,3.3,0,0,0,.58.16,9.79,9.79,0,0,0,.1-1.35c0-.66,0-1.22,0-1.69a.21.21,0,0,0-.09,0h0s0,0-.06-.07a.36.36,0,0,1,0-.1.08.08,0,0,1,0-.07.22.22,0,0,1,.16,0s0-.07,0-.11a.26.26,0,0,1,0-.07c0-.21-.09-.41-.14-.61a.82.82,0,0,0-.15-.38.39.39,0,0,1-.08-.14.24.24,0,0,1,0-.12s0,0,.11,0a.49.49,0,0,1,.2.12l.43.34.42.3a.36.36,0,0,1,.14.24A.46.46,0,0,1,16.67,6.41Zm.08-1.56a3.67,3.67,0,0,1-.47.16,2.57,2.57,0,0,1-.49.09.72.72,0,0,1-.57-.16c-.16-.13-.19-.25-.11-.35s.12-.24.2-.44a3.4,3.4,0,0,0,.17-.4.26.26,0,0,0,0-.17.18.18,0,0,0-.13-.11c-.08,0-.12-.07-.13-.13a.17.17,0,0,1,.07-.14A.87.87,0,0,1,15.67,3a1,1,0,0,1,.4-.09.29.29,0,0,1,.23.12.19.19,0,0,1,0,.25,6.64,6.64,0,0,0-.63.72c-.25.32-.36.54-.33.65a1.84,1.84,0,0,0,.7-.15,5.73,5.73,0,0,1,.56-.18.16.16,0,0,1,.12,0l.16.07L17,4.26a.35.35,0,0,0,0-.16c0-.07,0-.42,0-1a8.19,8.19,0,0,0,0-1.2,2.77,2.77,0,0,0-.89.15,3,3,0,0,0-.82.3.24.24,0,0,1-.12,0s-.06,0-.07,0a.1.1,0,0,1,0-.09s0-.05.09-.07a4.78,4.78,0,0,1,.94-.36A3.6,3.6,0,0,0,17,1.44c.07-.08.2-.08.37,0a1.66,1.66,0,0,1,.53.36,1.62,1.62,0,0,1,.38.51.39.39,0,0,1,0,.42A3,3,0,0,0,17.88,4a8.91,8.91,0,0,0-.12,1.42.69.69,0,0,1-.11.4c-.07.12-.16.14-.26.05A2.59,2.59,0,0,1,17,5.41,1.07,1.07,0,0,1,16.75,4.85Zm2.32,1-1,.38-1.29.46,0-.09a8.41,8.41,0,0,0,1-.55,3.18,3.18,0,0,0,.67-.47.37.37,0,0,1,.26-.28.48.48,0,0,1,.33,0,.41.41,0,0,1,.19.24A.26.26,0,0,1,19.07,5.81Z"/></g></g></svg>