<svg xmlns="http://www.w3.org/2000/svg" viewBox="0 0 29.26 11.53"><g id="レイヤー_2" data-name="レイヤー 2"><g id="レイヤー_1-2" data-name="レイヤー 1"><path d="M1.53,1.55c0,.09,0,.24.08.43a2.31,2.31,0,0,0,.09.32,1.2,1.2,0,0,0,.13.31,1.59,1.59,0,0,1,.14.3,2,2,0,0,0,.21-.19l.21-.21a.64.64,0,0,0,.07-.16,1.3,1.3,0,0,0,.06-.19,1.21,1.21,0,0,1,.14.46A.74.74,0,0,1,2.6,3a1.61,1.61,0,0,1-.25.29A1.77,1.77,0,0,1,2,3.55,4.19,4.19,0,0,0,2,4a6.45,6.45,0,0,0,0,.76c0,.21,0,.43,0,.67s0,.47-.05.69A10.2,10.2,0,0,1,3,5.66a3.76,3.76,0,0,1,.89-.25,3.2,3.2,0,0,1,1.2,0,1.17,1.17,0,0,1,.84.63A1.84,1.84,0,0,1,6,7.36a1.21,1.21,0,0,1-.7.92c-.66.19-1.12.07-1.39-.37a3.1,3.1,0,0,1-.3-1.81,2.53,2.53,0,0,0,0,.32,3.83,3.83,0,0,0,.05.41,2.07,2.07,0,0,0,.11.36A1.56,1.56,0,0,0,4,7.55a.78.78,0,0,0,.65.28.65.65,0,0,0,.57-.29A1.24,1.24,0,0,0,5.3,6.21a1.09,1.09,0,0,0-1.16-.5,3.22,3.22,0,0,0-1.33.48l-1,.59a2.43,2.43,0,0,0,0,.25v.26a1.56,1.56,0,0,1-.24.85c-.12.16-.31.19-.56.09a1.62,1.62,0,0,1-.52-.38c-.15-.17-.22-.29-.2-.37a1,1,0,0,1,.21-.42,1.87,1.87,0,0,1,.41-.38L1,6.6l.15-.08q0-.49.06-1.41c0-.61.05-1,.06-1.28l-.07,0-.05,0a1.81,1.81,0,0,1-.53,0,1.34,1.34,0,0,1-.4-.16C.1,3.6,0,3.54,0,3.47s0-.08.1-.05a1.27,1.27,0,0,0,.39,0L1,3.31l.16-.06.14,0V3.17a7.2,7.2,0,0,1,.06-.87A3.38,3.38,0,0,1,1.53,1.55ZM1.11,7.1l-.22.07-.17,0a.26.26,0,0,0-.22.15.15.15,0,0,0,.07.21c.15.12.27.14.37.09a.45.45,0,0,0,.16-.38ZM4.29,2.81a.66.66,0,0,1,.51-.28,1.78,1.78,0,0,1,.65.07A1.08,1.08,0,0,1,6,3.1a.66.66,0,0,1,.11.65.15.15,0,0,1-.23,0l-.43-.26a1.07,1.07,0,0,0-.32-.12l-.22,0,.24-.08a.28.28,0,0,0,.12-.08.75.75,0,0,0-.39-.28A1,1,0,0,0,4.29,2.81Z"/><path d="M13.34,4.72a6.56,6.56,0,0,0-2.43.44A9.84,9.84,0,0,0,8.22,6.52a.94.94,0,0,1-.44,0,1.37,1.37,0,0,1-.49-.13s0,0,0-.07,0,0,.13-.06a8.73,8.73,0,0,0,1.22-.4c.61-.22,1.32-.48,2.14-.8A7.47,7.47,0,0,0,11.56,4c.24-.39.29-.58.13-.54a1.86,1.86,0,0,0-.56.39,1.34,1.34,0,0,0-.45.64c0,.19-.13.27-.23.25a.62.62,0,0,1-.32-.26A1,1,0,0,1,9.94,4c0-.13,0-.17.11-.15a.52.52,0,0,0,.45,0,2.21,2.21,0,0,0,.62-.27c.22-.12.41-.25.59-.37l.5-.33a.32.32,0,0,1,.23,0,.88.88,0,0,1,.3.1.7.7,0,0,1,.22.19.15.15,0,0,1,0,.19c-.08.08-.34.3-.78.64L11,4.92c.17-.08.48-.2.94-.37a4.4,4.4,0,0,1,.76-.26H13a1.28,1.28,0,0,1,.35.06c.1,0,.16.08.16.15S13.47,4.63,13.34,4.72ZM13,2.09a11.19,11.19,0,0,1-1.62.37c-1,.2-1.49.29-1.54.28l-.17-.07s0,0,0,0c.41-.1.9-.25,1.46-.44s.91-.33,1.06-.4a.26.26,0,0,1,.21-.07,1.22,1.22,0,0,1,.33,0,.45.45,0,0,1,.25.12A.24.24,0,0,1,13,2.09ZM11.58,8.6a.7.7,0,0,1,.07.37c0,.13-.11.14-.29,0s-.31-.44-.78-1.18-.71-1.15-.75-1.25a.88.88,0,0,1-.09-.31c0-.06,0-.09.09-.06a.57.57,0,0,1,.25.16,2.74,2.74,0,0,1,.35.38l.83-.35A6.12,6.12,0,0,0,12,6.05s.14,0,.29,0a2.23,2.23,0,0,1,.48.09,1.34,1.34,0,0,1,.41.16c.09.07.12.13.08.19a9.31,9.31,0,0,0-.69.74q-.42.46-.33.51a.36.36,0,0,1,.22.11s0,.13-.08.22a3.36,3.36,0,0,0-.39.28A2.41,2.41,0,0,1,11.58,8.6Zm-.72-1.19.29.46s0,0,.12-.09a.64.64,0,0,0,.19-.16.88.88,0,0,1,.1-.25L11.71,7a.45.45,0,0,0,0-.28c0-.07-.09-.08-.2,0a4.35,4.35,0,0,0-.85.4ZM12.39.85a5.58,5.58,0,0,0-1,.07,2.76,2.76,0,0,1-.57.07,4,4,0,0,0,.42-.27c.16-.11.22-.18.19-.22L11.31.37,11.15.19c0-.06-.06-.11,0-.15s.08,0,.19,0l.55,0a1.08,1.08,0,0,1,.51.1.91.91,0,0,1,.22.42C12.63.75,12.57.85,12.39.85Zm2.37,4.61c0,.84,0,1.81,0,2.88s0,1.65,0,1.72a3.7,3.7,0,0,1-.18.7,5.22,5.22,0,0,1-.3.75l-.07,0a24.67,24.67,0,0,0,.07-2.61c0-1.46,0-2.79-.1-4A1.06,1.06,0,0,1,14,4.78a.49.49,0,0,1-.08-.12l.08,0,.15.09c0-.65-.09-1.19-.15-1.63a2.67,2.67,0,0,0-.2-.82c-.05-.15-.06-.23,0-.26s.1,0,.19.05A.18.18,0,0,1,14,2,.27.27,0,0,1,14.15,2l1.19-.55c.68-.31,1-.47,1.07-.47l.26.05a2.54,2.54,0,0,1,.44.15.67.67,0,0,1,.31.2q.09.1-.06.21a2.75,2.75,0,0,0-.53.37,1.4,1.4,0,0,0-.31.43l-.25.41a1.44,1.44,0,0,0-.16.33.45.45,0,0,0,0,.3.43.43,0,0,0,.19.26,7.25,7.25,0,0,1,1.36,1.73c.55.87.67,1.45.36,1.72a5.74,5.74,0,0,1-1.39-.38A3.21,3.21,0,0,1,15.38,6l-.3-.26Zm0-2.34s0,.25,0,.71,0,.91,0,1.35a6.32,6.32,0,0,0,1.11.62,1.49,1.49,0,0,0,1,.12c.12,0,.15-.16.1-.36a1.89,1.89,0,0,0-.42-.71A6.9,6.9,0,0,0,16,4.38a6,6,0,0,1-.56-.46,1.1,1.1,0,0,1-.29-.36.38.38,0,0,1,0-.4,8.53,8.53,0,0,0,.53-.94c.18-.36.23-.54.15-.51a3.92,3.92,0,0,0-.71.2c-.39.12-.68.22-.88.3h-.14a3.07,3.07,0,0,1,.47.48A.85.85,0,0,1,14.78,3.12Z"/><path d="M23.91,3.78l0,0s0,0,0,.05c-.19.39-.45.9-.77,1.52s-.64,1.19-.95,1.73a4.11,4.11,0,0,0-.31.5,6.77,6.77,0,0,1-.41.66,2.33,2.33,0,0,1-.42.41,1.15,1.15,0,0,1-.53.2V8.81c.37,0,.68-.26.94-.79s.46-1,.62-1.46a9.24,9.24,0,0,1,.35-.86c.16-.35.29-.65.4-.88s.24-.55.38-.93.28-.84.43-1.35a1.63,1.63,0,0,1-.31,0,.53.53,0,0,1-.23,0l-.22-.12a1,1,0,0,1-.15-.14s-.05-.08,0-.09.07,0,.15,0a9.61,9.61,0,0,0,1.44-.29c.82-.21,1.52-.36,2.1-.46a1.58,1.58,0,0,1,.75-.06,1.93,1.93,0,0,1,.69.2.88.88,0,0,1,.39.32c.07.12.05.21-.06.26l-.81.32c-.39.16-.6.29-.63.38s0,0-.06.13-.05.12-.08.12a6.28,6.28,0,0,0-1.42.31A4.92,4.92,0,0,0,23.91,3.78Zm5.21,5.67c-.17,0-.42-.09-.75-.14a8.32,8.32,0,0,0-.87-.1,2.47,2.47,0,0,0-.9-.11,7.24,7.24,0,0,0-1.1.12l-.07,0h0a7.16,7.16,0,0,0-.88.21,1.27,1.27,0,0,0-.5.24,2.88,2.88,0,0,1-.41.27.43.43,0,0,1-.33.07,2.56,2.56,0,0,1-.61-.35c-.21-.15-.23-.25-.05-.31l.37.08a1.86,1.86,0,0,0,.83,0c.07,0,.28-.08.63-.17a9.37,9.37,0,0,1,.93-.2V8.14l-1.06.49c-.43.2-.67.32-.71.35a5.45,5.45,0,0,1,.79-.45c.49-.26.82-.45,1-.56V7.76a1.48,1.48,0,0,0-.36.06L24.45,8a.22.22,0,0,1-.16,0,.31.31,0,0,1-.12,0s-.05-.06-.05-.09,0,0,.08-.07l.45-.25a5,5,0,0,1,.7-.34c0-.24-.08-.41-.11-.53a.52.52,0,0,0-.13-.24l0,0v0c-.12,0-.33.12-.62.25a3.06,3.06,0,0,1-.45.19.67.67,0,0,1-.12-.28c0-.13,0-.2,0-.22a2.06,2.06,0,0,0,.67-.69,4.2,4.2,0,0,0,.49-.85V4.67l0,0c-.26,0-.49.1-.69.16A1.25,1.25,0,0,0,24,5h-.25a0,0,0,0,1,0-.06.18.18,0,0,1,.13-.07,11,11,0,0,1,1.51-.56,6.07,6.07,0,0,1,1.58-.35.7.7,0,0,1,.26.19c.07.09.05.15-.06.19l-.71.17a1.51,1.51,0,0,1-.45.07h-.3a1.39,1.39,0,0,0-.33,0,.8.8,0,0,1,.19.28c.05.12.07.2,0,.23a.46.46,0,0,0-.15.13,1.8,1.8,0,0,0-.18.25.93.93,0,0,0-.1.21c0,.06,0,.09.05.09l.58-.18.62-.14a.11.11,0,0,1,0,0l0,0-.13-.3c-.06-.13,0-.16.16-.11a5.76,5.76,0,0,1,.58.48,1.25,1.25,0,0,1,.37.44,1.25,1.25,0,0,0,0,.22c0,.11,0,.15-.08.11L27,6a3.44,3.44,0,0,1-.4-.32,1.8,1.8,0,0,0-.36.13,5.12,5.12,0,0,0-.48.23,2.33,2.33,0,0,1,.45.28q.18.13.12.27s0,.06,0,.12,0,.15,0,.21h.21a1.42,1.42,0,0,1,.53.19q.29.15.06.27a3.21,3.21,0,0,0-.44.2l-.63.31c-.07.25-.13.49-.19.7a3.2,3.2,0,0,0-.08.38.13.13,0,0,0,0,0c.38-.07.77-.12,1.17-.16s.81,0,1.23,0a1.75,1.75,0,0,1,.42.08,2.38,2.38,0,0,1,.49.19.65.65,0,0,1,.29.21C29.29,9.37,29.25,9.42,29.12,9.45ZM24.51,2.26a1.36,1.36,0,0,0-.2.4c-.06.15-.13.36-.22.62l1-.35.52-.18a1.38,1.38,0,0,0,.27-.21c.15-.13.29-.27.44-.42a2.41,2.41,0,0,0,.3-.4c.05-.11,0-.17-.07-.18a1.93,1.93,0,0,0-.84.15,9.15,9.15,0,0,0-1.14.47,0,0,0,0,1,0,0A.25.25,0,0,1,24.51,2.26Z"/></g></g></svg>