<svg width="90" height="235" viewBox="0 0 90 235" fill="none" xmlns="http://www.w3.org/2000/svg">
<g clip-path="url(#clip0_39_72)">
<path d="M31.3927 1C31.3927 1.72593 31.3927 2.93582 32.0407 4.46834C32.2211 5.34503 32.4647 6.20762 32.7697 7.04944C33.0011 7.92798 33.3556 8.76972 33.8226 9.54987C34.2841 10.315 34.6642 11.126 34.9566 11.9696C35.5592 11.4995 36.1276 10.9873 36.6576 10.4371L38.3585 8.74328C38.6058 8.34092 38.7966 7.90669 38.9255 7.45273C39.1266 6.95502 39.2891 6.44268 39.4115 5.92021C40.0349 7.06899 40.4205 8.33067 40.5455 9.63053C40.6576 10.677 40.49 11.7344 40.0595 12.6956C39.4803 13.5527 38.8005 14.338 38.0345 15.0347C37.1799 15.8474 36.2277 16.5518 35.1996 17.1318C35.1343 18.3408 35.1343 19.5525 35.1996 20.7615C35.0786 22.8031 35.0786 24.85 35.1996 26.8916C35.1996 28.5854 35.1996 30.3599 35.1996 32.2957C35.1996 34.2316 35.1996 36.0867 34.7946 37.8612C37.5574 36.4667 40.3969 35.2279 43.2994 34.1509C45.6099 33.186 48.0311 32.5088 50.5082 32.1344C53.7191 31.5241 57.017 31.5241 60.228 32.1344C61.6812 32.395 63.0532 32.9902 64.2344 33.8725C65.4157 34.7547 66.3736 35.8997 67.0318 37.216C68.5386 40.5725 68.7406 44.3665 67.5988 47.863C67.3505 49.4727 66.7016 50.9951 65.7113 52.2912C64.721 53.5873 63.4207 54.616 61.9289 55.2836C56.583 56.8161 52.8571 55.8482 50.6702 52.2992C48.3995 47.7884 47.5524 42.699 48.2403 37.6999C48.1856 38.5594 48.1856 39.4215 48.2403 40.281C48.3154 41.3898 48.4506 42.4937 48.6452 43.588C48.8531 44.5809 49.1513 45.5528 49.5362 46.4918C50.0206 47.5402 50.6474 48.5172 51.3992 49.3955C52.0358 50.1587 52.8446 50.7611 53.7596 51.1536C54.6746 51.5461 55.6698 51.7175 56.664 51.6539C57.5708 51.6934 58.4724 51.4988 59.2814 51.0889C60.0903 50.6791 60.7791 50.0679 61.2809 49.3148C62.403 47.7735 63.06 45.9453 63.1748 44.045C63.2895 42.1447 62.8573 40.2513 61.9289 38.5872C60.9772 37.0266 59.5612 35.7999 57.8775 35.0772C56.1938 34.3545 54.3259 34.1717 52.5331 34.5542C48.6985 35.034 45.0189 36.3564 41.7604 38.4258L33.6606 43.1847C33.6259 43.8565 33.6259 44.5295 33.6606 45.2012V47.2984C33.6894 49.7225 33.0144 52.1032 31.7167 54.1544C30.7447 55.4449 29.2057 55.6869 27.1808 54.8803C25.585 54.1496 24.1527 53.1074 22.9689 51.8153C21.7539 50.4441 21.1869 49.4762 21.3489 48.8309C21.6379 47.5832 22.2209 46.422 23.0499 45.4432C23.9964 44.2616 25.1159 43.2284 26.3708 42.3781L27.0998 41.7329L28.3148 41.0876C28.3148 38.4527 28.4768 34.6618 28.8008 29.7147C28.8008 24.7945 29.2057 21.6487 29.2867 19.3903H28.7198H28.3148C26.8916 19.6 25.4451 19.6 24.0219 19.3903C22.8791 19.1369 21.785 18.7011 20.782 18.0997C19.81 17.5351 19 17.0512 19 16.4866C19 15.9219 19 15.8413 19.81 16.0833C20.8567 16.2452 21.9222 16.2452 22.9689 16.0833L27.0998 15.196L28.3958 14.7121H29.5297V14.0668C29.5492 11.72 29.7115 9.37662 30.0157 7.04944C30.2421 4.98736 30.7041 2.95775 31.3927 1ZM27.9908 45.7658L26.2088 46.3304H24.8319C24.4529 46.3534 24.0872 46.478 23.7735 46.691C23.4599 46.904 23.2098 47.1974 23.0499 47.5403C22.9678 47.6871 22.9173 47.8492 22.9017 48.0164C22.886 48.1836 22.9054 48.3523 22.9587 48.5116C23.0121 48.671 23.0981 48.8175 23.2114 48.9419C23.3247 49.0663 23.4628 49.1658 23.6169 49.2342C24.8319 50.2021 25.8038 50.3634 26.6138 49.9601C27.0595 49.589 27.4096 49.1172 27.635 48.5841C27.8605 48.0509 27.9547 47.4718 27.9098 46.8951L27.9908 45.7658ZM53.7481 11.1631C54.2176 10.4973 54.8341 9.94759 55.5502 9.55609C56.2663 9.16458 57.0629 8.94171 57.879 8.9046C59.6539 8.7675 61.439 8.95894 63.1439 9.46921C65.0613 10.2463 66.6398 11.6753 67.5988 13.5022C68.1957 14.2216 68.5923 15.0847 68.7487 16.0049C68.9051 16.9251 68.8158 17.87 68.4897 18.745C68.3757 18.8806 68.2332 18.9897 68.0723 19.0645C67.9113 19.1393 67.7359 19.1781 67.5583 19.1781C67.3807 19.1781 67.2052 19.1393 67.0443 19.0645C66.8833 18.9897 66.7408 18.8806 66.6268 18.745L63.1439 16.6479C62.3376 16.189 61.4624 15.8622 60.5519 15.68H58.77L60.7139 15.0347C61.089 14.9078 61.4241 14.6853 61.6859 14.3894C60.9099 13.3123 59.8 12.5188 58.527 12.131C57.0717 11.3271 55.4031 10.9892 53.7481 11.1631Z" fill="black"/>
<path d="M49.0038 101.39C42.2765 101.321 35.5973 102.526 29.3213 104.939C21.5358 107.459 14.1868 111.159 7.53281 115.908C6.36157 116.189 5.14014 116.189 3.9689 115.908C2.59195 115.808 1.24594 115.452 0 114.86C0 114.86 0 114.86 0 114.295C0 113.731 9.65571e-07 114.295 1.05297 113.811C4.42195 112.979 7.7248 111.9 10.9347 110.585C15.8756 108.81 21.6264 106.713 28.2683 104.132C30.6227 101.473 32.7369 98.6118 34.5861 95.5823C36.5301 92.4365 36.9351 90.904 35.6391 91.2267C33.9453 91.9877 32.4074 93.0542 31.1032 94.3724C29.3996 95.6937 28.1306 97.4911 27.4583 99.5346C27.4583 101.067 26.4053 101.712 25.5953 101.551C24.5164 101.167 23.6018 100.427 23.0034 99.4539C22.159 98.3197 21.6283 96.9847 21.4645 95.5823C21.4645 94.5337 21.4645 94.211 22.3554 94.3724C22.9242 94.6442 23.547 94.7853 24.1779 94.7853C24.8088 94.7853 25.4316 94.6442 26.0003 94.3724C27.7766 93.9073 29.4704 93.1727 31.0222 92.1946C32.8042 91.2267 34.3431 90.1781 35.8011 89.2102L39.851 86.5484C40.4505 86.3185 41.1144 86.3185 41.7139 86.5484C42.5662 86.669 43.3895 86.9422 44.1439 87.355C44.839 87.7361 45.4461 88.2582 45.9258 88.8875C46.1035 89.1037 46.2006 89.3745 46.2006 89.6538C46.2006 89.9332 46.1035 90.2039 45.9258 90.4201C45.2779 91.0653 43.1719 92.8398 39.608 95.5823L30.0502 103.003C31.4272 102.358 33.9381 101.39 37.664 100.019C39.6475 99.134 41.708 98.4321 43.8199 97.9214H46.2498C47.2128 97.9507 48.167 98.1136 49.0848 98.4053C49.8947 98.4053 50.3807 99.0506 50.3807 99.6152C50.3807 100.18 50.0567 100.664 49.0038 101.39ZM46.2498 80.1764C41.9563 81.4936 37.5703 82.4912 33.1282 83.1607C25.0284 84.7739 21.0595 85.4999 20.6545 85.4192L19.2775 84.8546C22.5984 84.048 26.5673 82.8381 31.1032 81.3056C35.6391 79.7731 38.474 78.6438 39.689 78.0792C39.9133 77.8663 40.1821 77.7052 40.4761 77.6076C40.7701 77.51 41.0822 77.4783 41.3899 77.5146C42.2768 77.3941 43.176 77.3941 44.0629 77.5146C44.8233 77.6169 45.532 77.9557 46.0878 78.4825C46.2426 78.7339 46.3377 79.0172 46.3657 79.3108C46.3938 79.6043 46.3542 79.9004 46.2498 80.1764ZM34.7481 132.685C35.2073 133.61 35.4034 134.642 35.3151 135.67C35.3151 136.718 34.4241 136.799 32.9662 135.67C31.5082 134.541 30.4552 132.121 26.6483 126.152C22.8414 120.183 20.8975 116.876 20.5735 116.07C20.1777 115.288 19.9306 114.44 19.8445 113.569C19.8445 113.085 19.8445 112.843 20.5735 113.085C21.3511 113.33 22.0497 113.775 22.5984 114.376C23.6382 115.306 24.5874 116.333 25.4334 117.441L32.1562 114.618C34.2069 113.916 36.2092 113.081 38.15 112.117C38.15 112.117 39.284 112.117 40.499 112.117C41.8177 112.217 43.1215 112.46 44.3869 112.843C45.5577 113.088 46.6798 113.524 47.7078 114.134C48.4368 114.698 48.6798 115.182 48.3558 115.666C46.3856 117.554 44.5198 119.546 42.7669 121.635C40.499 124.109 39.608 125.48 40.094 125.749C40.7741 125.827 41.405 126.141 41.8759 126.636C41.8759 126.636 41.8759 127.685 41.228 128.411C40.1222 129.087 39.0666 129.842 38.069 130.669C37.0322 131.45 35.9197 132.125 34.7481 132.685ZM28.9163 123.087L31.2652 126.797C31.2652 126.797 31.2652 126.797 32.2372 126.071C32.8299 125.745 33.3527 125.307 33.7761 124.781C33.9407 124.071 34.2139 123.391 34.5861 122.764L35.8011 119.78C36.0423 119.046 36.0423 118.255 35.8011 117.522C35.8011 116.957 35.0721 116.876 34.1811 117.522C31.776 118.346 29.4676 119.428 27.2963 120.748L28.9163 123.087ZM41.309 70.1746C38.5975 70.1204 35.8866 70.3094 33.2092 70.7392C31.6941 71.0868 30.1468 71.276 28.5923 71.3038C29.7707 70.6492 30.9069 69.9218 31.9942 69.1261C33.2902 68.2388 33.7761 67.6742 33.5332 67.3515L32.5612 66.303L31.2652 64.8511C31.2652 64.3672 30.7792 63.9639 31.2652 63.6412C31.7512 63.3186 31.9132 63.6412 32.8042 63.6412H37.2591C38.6814 63.5712 40.0994 63.8481 41.3899 64.4478C42.2741 65.4004 42.889 66.5693 43.1719 67.8355C43.2529 69.368 42.7669 70.1746 41.309 70.1746ZM60.5055 107.358C60.5055 114.134 60.5055 121.958 60.5055 130.588C60.5055 139.219 60.5055 143.897 60.5055 144.462C60.2057 146.387 59.7174 148.278 59.0475 150.108C58.3956 152.184 57.5832 154.206 56.6176 156.157H56.0506C56.6126 149.155 56.8019 142.128 56.6176 135.105C56.6176 123.329 56.6176 112.601 55.8076 102.842C55.2897 102.569 54.8012 102.245 54.3496 101.874C54.0869 101.585 53.8685 101.258 53.7016 100.906H54.3496L55.5646 101.632C55.5646 96.3888 54.8356 92.0333 54.3496 88.4842C54.1652 86.208 53.6184 83.9754 52.7297 81.8702C52.3247 80.6603 52.2437 80.015 52.7297 79.7731C53.2157 79.5311 53.5396 79.7731 54.2686 80.1764C54.2331 79.9315 54.2609 79.6816 54.3496 79.4504C54.7465 79.3361 55.1677 79.3361 55.5646 79.4504L65.2033 75.0142C70.7112 72.5137 73.3031 71.2232 73.8701 71.2232L75.9761 71.6265C77.1987 71.9204 78.3917 72.3254 79.54 72.8364C80.5121 73.1295 81.382 73.6884 82.0509 74.4496C82.5369 74.9873 82.3749 75.5519 81.5649 76.1434C80.0211 76.9667 78.5802 77.9684 77.272 79.1278C76.2209 80.1141 75.3686 81.2913 74.7611 82.5961L72.7362 85.9032C72.192 86.7318 71.7565 87.6263 71.4402 88.5649C71.1623 89.3478 71.1623 90.2018 71.4402 90.9847C71.661 91.8558 72.2127 92.6077 72.9791 93.0818C77.3427 97.1479 81.0573 101.853 83.9949 107.036C88.4498 114.053 89.4217 118.731 86.9108 120.909C83.0435 120.363 79.2608 119.333 75.6521 117.844C71.8483 116.604 68.3835 114.506 65.5273 111.714L63.0974 109.617L60.5055 107.358ZM60.5055 88.4842C60.5055 88.4842 60.5055 90.5007 60.5055 94.211C60.5055 97.9214 60.5055 101.551 60.5055 105.1C63.326 107.064 66.3381 108.739 69.4962 110.101C72.0015 111.35 74.8651 111.692 77.596 111.069C78.568 111.069 78.811 109.778 78.406 108.165C77.7093 106.03 76.5477 104.074 75.0041 102.438C73.5867 101.098 72.0997 99.8325 70.5492 98.6473C68.9636 97.5027 67.4488 96.2636 66.0133 94.937C65.0326 94.1457 64.232 93.1559 63.6644 92.0333C63.3632 91.5486 63.2036 90.99 63.2036 90.4201C63.2036 89.8501 63.3632 89.2915 63.6644 88.8069C65.2546 86.3723 66.6884 83.8399 67.9573 81.2249C69.4152 78.3212 69.8202 76.8693 69.1722 77.1113C67.2086 77.4678 65.2832 78.008 63.4214 78.7245C60.2625 79.6924 57.9135 80.499 56.2936 81.1443H55.1596C56.567 82.2923 57.8436 83.5906 58.9665 85.0159C59.8553 85.9859 60.4457 87.1898 60.6675 88.4842H60.5055Z" fill="black"/>
<path d="M46.1777 190.291C46.1777 190.291 56.3524 186.5 58.3281 187C60.3035 187.5 60.4061 187.088 61 188.5C61.5939 189.913 56.0267 190.747 54 191C51.9733 191.253 49 191.5 49 191.5L50 194.376L44 203L56.5 200C56.5 200 55.3277 195.721 55.9141 195.36C56.4941 195.004 56.7056 195.353 56.71 195.36C56.71 195.36 64 205 64 206C64 207 64.0458 206.88 64 208C63.9541 209.119 58.5104 202.513 58.5 202.5L50 205.5L52.5 207.443V211.638C52.5 211.638 57.1455 210.568 58.5 210.5C59.8545 210.433 62.6162 212.018 63.5 213.009C64.3832 214 51.5 219.5 51.5 219.5L50.5 227.5C50.5 227.5 66.2623 225.647 68.4521 225.914C70.6407 226.181 74 226.963 74 226.963C74.0163 226.966 79.564 228.107 79.5 228.898C79.4354 229.691 80.0352 230.754 78.6582 230.754C77.2812 230.754 75.2559 230.027 72.583 229.624C70.2501 229.232 67.9114 229.265 65.5361 228.818C63.1609 228.372 60.711 227.776 58.2471 227.931C55.2567 228.027 52.2777 228.35 49.3369 228.898H48.7695C46.3604 229.313 43.9801 229.879 41.6426 230.593C40.1659 230.933 38.7821 231.594 37.5918 232.528C36.5492 233.347 35.4385 234.076 34.2715 234.706C33.8873 234.975 33.4523 235.163 32.9932 235.26C32.5339 235.357 32.0593 235.361 31.5986 235.271C29.8291 234.56 28.1659 233.61 26.6572 232.447C24.9566 231.238 24.7951 230.431 26.2529 229.947L29.249 230.593C31.4614 231.097 33.7603 231.097 35.9727 230.593C36.54 230.593 38.2408 229.946 41.0752 229.221C43.557 228.556 46.0717 228.019 48.6084 227.608V220.188L40.0225 224.14C36.7335 225.663 34.8169 226.611 34.3408 226.916C36.348 225.55 38.4646 224.352 40.6699 223.333C44.6384 221.236 47.3115 219.704 48.7695 218.816V217.122C47.7815 217.163 46.8024 217.326 45.8545 217.606L40.832 219.059C40.4155 219.22 39.9527 219.221 39.5361 219.059C39.2154 219.122 38.8852 219.122 38.5645 219.059C38.5645 219.059 38.1592 218.574 38.1592 218.332C38.1592 218.09 38.1598 218.332 38.8076 217.768L42.4521 215.751C44.2677 214.692 46.1635 213.775 48.1221 213.009C48.1221 211.073 47.4744 209.701 47.2314 208.733C47.0598 208.006 46.6955 207.338 46.1777 206.798C45.2057 206.798 43.5049 207.766 41.1562 208.814C39.9844 209.421 38.7656 209.933 37.5117 210.347C37.018 209.678 36.6846 208.906 36.5391 208.089V206.314C38.7637 204.912 40.6232 203.004 41.9658 200.748C43.5532 198.625 44.8861 196.324 45.9355 193.893V192.198C43.8298 192.198 41.9665 193.005 40.3467 193.489C39.2228 193.763 38.154 194.227 37.1875 194.86H35.1621V194.376C35.8324 193.989 42.7849 191.492 46.1777 190.291ZM56.7891 166.146C58.7452 165.5 60.8289 165.334 62.8633 165.662C64.8112 165.847 66.707 166.394 68.4521 167.275C69.7355 167.81 70.8339 168.708 71.6113 169.856C72.1781 170.824 72.0159 171.55 71.125 171.953L64.5645 174.534C61.4056 175.825 59.7049 176.874 59.4619 177.6C59.2191 178.325 59.4613 177.599 58.9756 178.647C58.4898 179.695 58.5707 179.616 58.3281 179.616C54.41 180.004 50.5499 180.842 46.8262 182.116C43.2542 182.612 39.7661 183.589 36.458 185.02V185.423C34.919 188.569 32.8136 192.683 30.2217 197.684C27.6298 202.684 25.0373 207.282 22.5264 211.638C21.5938 212.92 20.7547 214.269 20.0156 215.671C19.012 217.507 17.9026 219.285 16.6943 220.994C15.705 222.235 14.5622 223.346 13.293 224.301C12.0195 225.187 10.5437 225.741 9 225.914V225.592C11.9969 225.592 14.5083 223.495 16.6143 219.22C18.7202 214.945 20.3398 211.154 21.6357 207.443C22.4634 205.085 23.4096 202.77 24.4707 200.507C25.7667 197.684 26.82 195.263 27.7109 193.408C28.6019 191.553 29.6542 188.972 30.7881 185.907C31.922 182.842 33.0565 179.132 34.2715 175.019C33.4365 175.098 32.5957 175.098 31.7607 175.019C31.1473 175.154 30.5109 175.154 29.8975 175.019L28.1152 174.051C27.6724 173.717 27.2654 173.338 26.9004 172.921C26.8924 172.908 26.4998 172.275 26.9004 172.195C27.3053 172.115 27.4675 172.195 28.1152 172.195C32.0574 171.713 35.957 170.931 39.7793 169.856C46.4211 168.163 52.0912 166.952 56.7891 166.146ZM61 168.041C60.9218 167.07 57 168.041 57 168.041L40 173.595L37.5 181L54.5 177.298C54.5 177.298 61.078 169.012 61 168.041Z" fill="black"/>
</g>
<defs>
<clipPath id="clip0_39_72">
<rect width="90" height="235" fill="white"/>
</clipPath>
</defs>
</svg>
