<svg width="684" height="240" viewBox="0 0 684 240" fill="none" xmlns="http://www.w3.org/2000/svg">
<g clip-path="url(#clip0_122_48)">
<path d="M81.5988 81.0825C77.962 83.0343 73.9026 84.0374 69.7873 84.0013C65.6189 84.3645 61.4323 83.5566 57.6876 81.6663C53.0197 78.4542 48.1067 75.6237 42.9952 73.2018L32.0479 67.6561C28.1312 65.6404 23.9645 64.1678 19.6602 63.2779C13.6104 61.8186 10.7295 60.0673 10.7295 60.0673C10.7295 60.0673 14.4746 57.1485 22.541 55.3972C28.1285 54.1168 33.816 53.3355 39.5382 53.0622H49.9093C55.6736 53.501 61.3733 54.5776 66.9064 56.2729C73.2061 58.2142 78.554 62.4863 81.8869 68.2399C84.4797 74.6612 84.7678 79.0394 81.5988 81.0825ZM39.5382 151.425C42.6984 158.212 46.3578 164.749 50.4855 170.981C53.4633 175.566 57.6569 179.208 62.5851 181.489C63.2883 182.033 64.1488 182.328 65.0338 182.328C65.9189 182.328 66.7793 182.033 67.4826 181.489C68.8272 179.507 69.8937 177.346 70.6515 175.067C71.2664 178.358 72.4358 181.518 74.1086 184.407C75.8371 188.494 77.2775 191.12 77.8537 192.58C79.1645 196.155 80.0353 199.88 80.4465 203.671C81.118 206.254 81.118 208.969 80.4465 211.552C77.8537 214.471 71.8039 213.011 62.5851 207.758C54.8398 203.73 48.2063 197.812 43.2833 190.537C37.9419 181.383 33.7789 171.574 30.8956 161.349C28.7668 156.786 27.6627 151.802 27.6627 146.755C27.6627 141.708 28.7668 136.724 30.8956 132.161C31.4418 136.065 32.7125 139.828 34.6407 143.253C39.5382 147.631 39.5382 149.674 39.5382 151.425ZM97.1555 42.5546C101.253 41.8177 105.446 41.8177 109.543 42.5546C114.075 43.2514 118.402 44.945 122.219 47.5165C123.952 49.8773 125.224 52.5523 125.964 55.3972C127.083 57.871 127.672 60.5568 127.693 63.2779C127.561 64.9365 126.851 66.4935 125.69 67.67C124.529 68.8466 122.992 69.566 121.355 69.6993C119.807 69.9546 118.219 69.7923 116.753 69.2286C115.286 68.665 113.992 67.72 113 66.4886C109.609 61.2848 105.646 56.4869 101.189 52.1866C97.1555 46.0572 93.6985 43.1384 97.1555 42.5546ZM122.507 36.7171C125.959 35.2374 129.742 34.7331 133.454 35.2577C138.063 35.4858 142.575 36.6783 146.706 38.7602C148.813 40.4129 150.659 42.3814 152.18 44.5978C153.132 47.1361 153.132 49.9401 152.18 52.4785C151.908 53.9722 151.121 55.3198 149.961 56.2817C148.801 57.2436 147.341 57.7576 145.842 57.7323C144.532 57.7873 143.23 57.4928 142.067 56.8781C140.904 56.2634 139.921 55.3502 139.216 54.2297C137.041 51.4001 134.632 48.7636 132.014 46.349L125.964 40.5115L121.931 37.3008C121.931 37.3008 120.491 36.7171 121.355 36.7171H122.507Z" fill="white"/>
<path d="M308.718 214.023C308.551 220.513 307.154 226.91 304.602 232.874C301.629 239.77 297.97 241.609 293.625 238.851C286.413 232.502 279.966 225.327 274.415 217.471C267.914 208.758 260.214 201.018 251.546 194.483L246.972 190.805C246.972 190.805 246.972 189.195 246.972 188.966C246.972 188.736 248.115 188.966 249.259 188.966C250.863 189.354 252.404 189.974 253.833 190.805L260.465 194.253L272.357 199.31C275.193 200.439 278.225 200.987 281.275 200.92C281.804 200.997 282.343 200.949 282.849 200.78C283.356 200.611 283.817 200.325 284.194 199.945C284.572 199.566 284.856 199.103 285.024 198.594C285.192 198.084 285.24 197.543 285.163 197.012C285.163 194.713 285.163 182.069 285.163 158.851C286.633 146.115 286.015 133.224 283.334 120.69C281.12 118.243 279.201 115.542 277.616 112.644C276.144 110.211 274.845 107.675 273.729 105.057C257.511 110.608 241.821 117.609 226.847 125.977C218.021 129.905 210.2 135.801 203.978 143.218C202.763 145.247 200.919 146.818 198.729 147.69C196.539 148.563 194.125 148.688 191.857 148.046C186.443 147.663 181.266 145.662 176.992 142.299C173.609 140.142 170.849 137.13 168.988 133.563C168.988 131.724 168.988 130.345 172.647 129.885C176.306 129.425 174.019 129.885 174.934 129.885L177.679 132.184C179.012 132.951 180.494 133.421 182.024 133.563C184.909 133.929 187.829 133.929 190.714 133.563C194.373 133.563 203.978 128.506 219.986 121.839L264.124 103.908C276.93 98.0843 291.338 93.0268 307.346 88.7356C320.189 84.755 333.484 82.4375 346.91 81.8391L355.6 80.6897C360.983 80.2521 366.378 81.3687 371.151 83.9081C376.882 85.532 382.242 88.2652 386.931 91.954C389.218 94.4828 388.989 96.5517 386.931 98.3908C383.622 99.9366 380.176 101.168 376.64 102.069L364.748 104.368C354.091 106.638 343.837 110.513 334.332 115.862L307.804 128.736C307.804 131.954 307.804 146.207 307.804 171.494C307.804 196.782 308.718 211.494 308.718 214.023ZM326.785 30.115C321.938 31.6157 317.321 33.7818 313.064 36.5517C308.22 39.277 303.628 42.4312 299.342 45.977C295.883 48.6883 292.805 51.859 290.194 55.4023C288.365 57.9311 288.822 59.3104 290.194 59.7701C293.481 60 296.679 60.941 299.571 62.5288C301.462 63.5663 302.982 65.1744 303.916 67.1265C304.256 67.7624 304.434 68.4733 304.434 69.1954C304.434 69.9175 304.256 70.6284 303.916 71.2644C303.628 71.9167 303.186 72.4882 302.628 72.9291C302.07 73.3699 301.413 73.6666 300.714 73.7931C294.681 74.8808 288.831 76.8154 283.334 79.5402C276.702 82.7586 270.756 85.7471 265.496 88.7356L249.03 98.8506C242.398 102.759 239.425 104.368 239.882 103.448C242.806 100.169 246.292 97.4434 250.174 95.4023C253.861 93.0703 257.308 90.375 260.465 87.3563C260.465 87.3563 264.352 82.7586 270.07 76.5517C275.787 70.3448 277.388 67.3563 274.872 66.6667C272.67 65.7351 270.531 64.66 268.469 63.4483C267.273 62.6916 266.194 61.7621 265.267 60.6897C265.115 60.5398 264.994 60.361 264.912 60.1636C264.829 59.9663 264.787 59.7543 264.787 59.5402C264.787 59.3262 264.829 59.1142 264.912 58.9169C264.994 58.7195 265.115 58.5406 265.267 58.3908C266.682 57.9486 268.197 57.9486 269.612 58.3908C273.147 56.9198 276.339 54.7281 278.989 51.954C283.708 47.8007 287.998 43.1796 291.795 38.1609C295.921 33.5154 299.526 28.4273 302.544 22.9885C304.373 19.3104 304.373 17.4713 302.544 17.4713C295.554 18.9781 288.989 22.0418 283.334 26.4368C277.16 29.4529 271.701 33.7643 267.325 39.0805C265.725 41.6092 264.124 42.9885 262.065 42.9885C260.172 42.8978 258.346 42.2591 256.806 41.1494L250.402 36.3218C248.745 34.9167 246.897 33.7556 244.914 32.8736L242.169 31.2644C242.048 31.0137 241.985 30.7386 241.985 30.4598C241.985 30.181 242.048 29.9059 242.169 29.6552C242.169 29.6552 242.169 28.046 243.313 26.8966C246.558 28.1122 250.13 28.1122 253.375 26.8966C258.202 25.9935 262.944 24.6863 267.554 22.9885L285.621 17.4713C289.741 16.1323 293.942 15.0574 298.199 14.2529C300.907 13.8319 303.582 13.2173 306.203 12.4138C307.793 11.5873 309.558 11.156 311.348 11.156C313.139 11.156 314.903 11.5873 316.494 12.4138C318.547 13.4849 320.466 14.7967 322.211 16.3218C324.665 17.6765 326.966 19.2952 329.072 21.1494C329.748 21.5948 330.295 22.2123 330.656 22.9392C331.018 23.6661 331.181 24.4763 331.13 25.2874C330.901 26.6667 329.072 28.046 326.785 29.1954V30.115ZM283.334 101.839C287.951 105.354 292.379 109.114 296.598 113.103C300.285 116.375 303.38 120.264 305.745 124.598H307.118C307.118 124.598 316.723 118.391 333.646 107.816C350.569 97.2414 356.515 92.1839 354.457 91.7242C343.59 90.4081 332.601 90.4854 321.754 91.954C308.697 94.1723 295.846 97.4787 283.334 101.839Z" fill="white"/>
<path d="M513.168 180.92C513.168 185.517 513.168 188.276 512.025 189.195C510.881 190.115 508.137 189.195 505.621 187.356L498.761 180C494.873 176.322 492.129 174.483 490.299 174.943C488.47 175.402 488.47 174.943 488.241 174.943C488.012 174.943 488.241 174.943 488.241 173.333C489.116 172.063 490.296 171.035 491.671 170.345H496.245C496.245 170.345 499.904 164.138 505.85 155.172C511.796 146.207 515.455 140.69 516.37 138.621C517.689 135.435 518.685 132.123 519.343 128.736C519.343 128.736 517.971 128.736 515.226 130.805L502.42 140.46C498.065 143.776 493.939 147.386 490.07 151.264L486.411 154.943C485.221 156.509 483.747 157.835 482.066 158.851C481.564 159.207 480.965 159.398 480.351 159.398C479.737 159.398 479.138 159.207 478.636 158.851C477.094 156.683 476.148 154.146 475.892 151.494C475.973 150.193 475.973 148.888 475.892 147.586C475.757 146.441 475.757 145.283 475.892 144.138C475.238 143.246 474.867 142.177 474.826 141.07C474.785 139.963 475.077 138.869 475.663 137.931C476.555 136.032 477.888 134.376 479.551 133.103L495.102 111.954C499.95 106.093 503.533 99.2821 505.621 91.954C506.148 89.5305 506.148 87.0213 505.621 84.5977C505.621 84.5977 503.106 84.5977 499.904 87.1264L481.38 98.1609C474.564 102.205 467.997 106.657 461.713 111.494C458.937 114.223 455.572 116.268 451.879 117.471C449.592 117.471 448.449 116.092 448.906 111.494V104.368C448.675 102.921 448.675 101.447 448.906 100C449.098 98.8541 449.661 97.8037 450.507 97.0115C451.766 96.5736 453.135 96.5736 454.395 97.0115C459.391 95.5804 463.9 92.7972 467.43 88.9655C473.741 82.9027 479.413 76.2005 484.353 68.9655C488.639 63.0755 493.298 57.4699 498.303 52.1839L516.141 31.2644C520.44 26.2616 524.485 21.0443 528.262 15.6322C531.463 10.5747 532.836 7.35632 532.149 5.74713C531.468 4.43027 530.931 3.04279 530.549 1.6092V0C530.549 0 530.549 0 532.149 0C536.745 0.9514 541.101 2.82818 544.956 5.51724C549.987 8.50575 551.131 11.4943 548.615 14.2529L517.971 45.977C499.904 64.5977 490.528 74.7126 489.613 75.8621L485.497 79.7701C483.914 81.1689 482.46 82.7077 481.151 84.3678C480.008 84.3678 480.008 85.977 481.151 85.977C482.991 85.9582 484.797 85.4845 486.411 84.5977C488.47 83.2184 493.729 80.6897 501.505 77.0115C509.28 73.3333 513.626 70.5747 514.312 68.9655C514.998 67.3563 516.141 66.4368 519.114 66.8966H525.746C528.83 67.4189 531.884 68.1096 534.894 68.9655C538.22 69.6179 541.448 70.6997 544.499 72.1839C547.243 73.5632 548.387 75.1724 548.387 76.5517C548.387 77.931 546.786 80 543.813 81.8391C533.991 87.7299 525.122 95.0946 517.513 103.678C509.62 110.407 502.625 118.134 496.702 126.667H499.904L505.164 123.908L512.025 121.149C515.208 118.712 518.19 116.022 520.944 113.103C522.485 111.327 524.382 109.898 526.509 108.908C528.637 107.917 530.948 107.389 533.293 107.356C537.407 107.285 541.455 108.402 544.956 110.575C546.557 111.954 544.956 115.172 542.898 119.77C536.685 127.79 530.043 135.464 523.002 142.759L497.388 169.425C501.247 169.807 504.907 171.327 507.908 173.793C510.506 175.402 512.389 177.954 513.168 180.92ZM497.388 214.253C497.849 215.099 498.09 216.047 498.09 217.011C498.09 217.976 497.849 218.924 497.388 219.77C497.388 221.379 495.102 222.299 492.357 222.299C489.613 222.299 479.779 215.862 472.004 204.828C464.228 193.793 461.484 187.356 464.228 185.747C464.94 185.273 465.775 185.02 466.63 185.02C467.484 185.02 468.319 185.273 469.031 185.747C471.105 187.051 472.959 188.681 474.519 190.575L479.093 194.713C479.243 194.904 479.434 195.059 479.652 195.165C479.87 195.271 480.109 195.326 480.351 195.326C480.593 195.326 480.832 195.271 481.05 195.165C481.268 195.059 481.459 194.904 481.609 194.713C482.062 193.157 482.757 191.683 483.667 190.345C484.169 189.41 484.977 188.679 485.954 188.276C486.257 188.068 486.616 187.957 486.983 187.957C487.35 187.957 487.709 188.068 488.012 188.276C488.189 189.726 488.189 191.193 488.012 192.644C487.763 197.618 489.127 202.539 491.9 206.667L497.388 214.253ZM536.495 168.276C537.373 169.465 537.78 170.94 537.638 172.414C537.034 173.492 536.057 174.31 534.894 174.713C534.024 175.541 532.889 176.03 531.692 176.092C531.303 176.294 530.872 176.399 530.434 176.399C529.997 176.399 529.565 176.294 529.176 176.092C526.41 173.258 523.428 170.645 520.258 168.276C517.932 166.488 515.164 165.374 512.253 165.057H510.195L515.912 160.92C519.818 159.437 524.127 159.437 528.033 160.92C531.543 162.078 534.537 164.437 536.495 167.586V168.276ZM609.218 31.4943C606.474 36.5517 598.47 49.8851 584.52 71.2644L558.906 110.575L557.763 111.954V109.655C558.336 108.035 559.104 106.491 560.05 105.057C567.597 88.7356 575.143 71.4943 582.919 53.5632C590.694 35.6322 593.439 24.8276 591.609 21.6092C590.859 20.2631 590.392 18.7764 590.237 17.2414C590.102 16.3268 590.102 15.3973 590.237 14.4828C590.237 14.4828 590.237 13.3333 592.066 13.3333C595.104 13.3894 598.085 14.1777 600.757 15.6322C603.061 16.879 605.523 17.8069 608.075 18.3908C608.9 18.3717 609.713 18.6026 610.406 19.0536C611.099 19.5045 611.642 20.1547 611.963 20.9195C612.025 24.413 611.072 27.8487 609.218 30.8046V31.4943ZM609.218 129.885C611.185 132.642 612.298 135.92 612.42 139.31C612.47 142.125 611.585 144.875 609.904 147.126C609.279 148.054 608.467 148.839 607.522 149.433C606.577 150.027 605.519 150.416 604.416 150.575C603.474 150.825 602.475 150.731 601.596 150.31C600.716 149.889 600.014 149.168 599.613 148.276C596.164 144.004 591.884 140.484 587.035 137.931C583.256 135.181 578.66 133.803 574 134.023H570.57C570.57 134.023 570.57 134.023 570.57 131.954C571.761 130.404 573.144 129.013 574.686 127.816C577.141 125.95 579.946 124.601 582.933 123.85C585.92 123.1 589.026 122.963 592.066 123.448C595.174 122.957 598.354 123.223 601.338 124.223C604.323 125.223 607.025 126.928 609.218 129.195V129.885ZM682.399 89.1954C677.603 98.7889 674.14 108.999 672.108 119.54C668.714 130.066 666.49 140.936 665.476 151.954C666.095 166.731 663.029 181.43 656.557 194.713C652.197 203.687 647.388 212.433 642.15 220.92C640.516 223.366 638.51 225.538 636.204 227.356C635.667 227.732 635.028 227.934 634.374 227.934C633.72 227.934 633.082 227.732 632.545 227.356C631.258 226.253 630.174 224.93 629.343 223.448L626.37 220.92C614.305 211.964 603.463 201.453 594.125 189.655C584.553 180.649 576.789 169.879 571.256 157.931C571.077 156.096 571.077 154.248 571.256 152.414C572.493 153.873 573.639 155.409 574.686 157.011L578.345 162.529C586.888 174.959 598.571 184.877 612.191 191.264C624.541 196.322 631.63 195.632 635.06 189.425C640.493 167.703 644.617 145.67 647.41 123.448C651.755 93.7931 650.611 78.6207 644.665 77.4713C636.03 76.0871 627.23 76.0871 618.595 77.4713C610.354 78.0361 602.434 80.9023 595.726 85.7471C593.907 86.5176 591.976 86.9836 590.008 87.1264C589.332 87.2193 588.644 87.1418 588.006 86.9011C587.367 86.6603 586.798 86.2638 586.349 85.7471C584.846 84.3628 583.874 82.4913 583.605 80.4598C593.17 78.7518 602.636 76.5264 611.963 73.7931C619.52 72.5296 626.844 70.1271 633.688 66.6667C634.137 65.9368 634.737 65.3126 635.447 64.8366C636.158 64.3605 636.962 64.0439 637.805 63.908H649.239L663.647 65.7471C666.652 66.2428 669.529 67.337 672.108 68.9655C675.656 71.5625 678.814 74.6594 681.485 78.1609C682.871 79.4735 683.73 81.2517 683.898 83.1585C684.067 85.0653 683.534 86.968 682.399 88.5057V89.1954Z" fill="white"/>
</g>
<defs>
<clipPath id="clip0_122_48">
<rect width="684" height="240" fill="white"/>
</clipPath>
</defs>
</svg>
