<svg width="1821" height="230" viewBox="0 0 1821 230" fill="none" xmlns="http://www.w3.org/2000/svg">
<path fill-rule="evenodd" clip-rule="evenodd" d="M163.505 0C163.977 0 164.358 0.379072 164.358 0.846682V31.7585L185.835 34.7507L186.004 34.8681L186.004 34.8684C186.004 34.8686 186.004 34.8688 186.005 34.8691C186.006 34.8697 186.007 34.8707 186.009 34.872C186.013 34.8748 186.019 34.8791 186.027 34.8846C186.043 34.8957 186.067 34.9124 186.099 34.9342C186.161 34.9779 186.255 35.0425 186.376 35.1261C186.618 35.2932 186.971 35.5356 187.413 35.8361C188.297 36.4374 189.536 37.2709 190.957 38.1989C193.805 40.0592 197.359 42.2838 200.24 43.786C203.121 45.2883 206.97 46.9266 210.116 48.1951C211.686 48.8278 213.074 49.3657 214.069 49.7455C214.567 49.9354 214.966 50.0857 215.241 50.1884C215.366 50.2353 215.466 50.2723 215.537 50.2985L250.868 51.6476H259.493L267.867 42.1648H278.143L282.951 30.3112H280.878V25.2311H294.02L297.73 21.167H298.108V10.6682C298.108 10.2006 298.49 9.82151 298.961 9.82151C299.432 9.82151 299.814 10.2006 299.814 10.6682V21.167H302.373V25.2311H305.785V42.1648H309.37L310.998 49.4416C311.551 49.2349 312.279 48.9583 313.093 48.6363C314.89 47.9248 317.073 47.0069 318.694 46.1574C320.108 45.4165 321.893 44.1914 324.056 42.6605C325.406 41.7049 326.811 40.6914 327.878 39.9161C328.412 39.5285 328.861 39.2006 329.176 38.9699C329.334 38.8545 329.458 38.7632 329.543 38.701C329.586 38.6698 329.618 38.646 329.64 38.6299C329.651 38.6218 329.66 38.6157 329.665 38.6117C329.668 38.6097 329.67 38.608 329.671 38.607C329.672 38.6065 329.672 38.6063 329.673 38.606L329.673 38.6057L329.899 38.4394H343L342.925 39.3548V39.3565C342.925 39.3574 342.925 39.3588 342.924 39.3605C342.924 39.364 342.924 39.3692 342.923 39.376C342.922 39.3897 342.92 39.4098 342.918 39.4362C342.914 39.4891 342.907 39.567 342.898 39.6674C342.881 39.8682 342.854 40.1594 342.82 40.5223C342.752 41.248 342.651 42.2614 342.522 43.4123C342.264 45.7066 341.889 48.5755 341.423 50.8036C340.953 53.0486 339.758 56.8304 338.602 60.2021C337.452 63.5576 336.296 66.6319 335.891 67.4359C335.712 67.7922 335.555 68.1295 335.402 68.4602C335.252 68.7869 335.103 69.1153 334.946 69.4319C334.63 70.0734 334.268 70.7015 333.732 71.33C333.193 71.961 332.404 72.6003 331.789 73.0607C331.474 73.2962 331.19 73.4954 330.985 73.6359C330.882 73.7062 330.799 73.7622 330.74 73.8009C330.711 73.8202 330.688 73.8354 330.672 73.8459C330.664 73.8511 330.658 73.8552 330.654 73.8581C330.651 73.8595 330.65 73.8606 330.648 73.8614C330.648 73.8618 330.647 73.8621 330.647 73.8624L330.646 73.8631L330.434 74H189.048L188.857 73.8961L189.266 73.1533C188.857 73.8962 188.857 73.8962 188.857 73.8961L188.856 73.8958C188.856 73.8957 188.856 73.8957 188.855 73.8955C188.855 73.895 188.853 73.8943 188.852 73.8935C188.849 73.8918 188.844 73.8893 188.837 73.8859C188.825 73.8791 188.807 73.8689 188.783 73.8558C188.735 73.8296 188.664 73.7912 188.574 73.7414C188.392 73.6415 188.129 73.496 187.802 73.3134C187.147 72.9481 186.235 72.4333 185.205 71.8347C183.152 70.6412 180.608 69.1009 178.703 67.7451C174.896 65.0346 169.852 60.3406 164.768 55.1144C159.664 49.8677 152.957 41.6461 150.858 38.5763C149.811 37.0455 148.564 35.0395 147.584 33.4251C147.093 32.616 146.667 31.9017 146.364 31.3897C146.212 31.1338 146.091 30.9282 146.007 30.7865C145.966 30.7156 145.933 30.6607 145.911 30.6234C145.901 30.6049 145.892 30.5907 145.887 30.5811C145.884 30.5763 145.882 30.5727 145.88 30.5702C145.88 30.5689 145.879 30.5678 145.879 30.5672C145.879 30.5669 145.878 30.5667 145.878 30.5665L145 29.0617L162.652 31.5207V0.846682C162.652 0.379072 163.034 0 163.505 0ZM284.308 39.794H296.573V32.3432H287.33L284.308 39.794Z" fill="#071F69"/>
<path d="M523.6 195.863C310.986 195.863 187.739 176.803 0.00012207 128.5V229.5H1821V195.863C1658.78 195.863 1511.96 136.649 1281.34 136.649C1050.72 136.649 736.214 195.863 523.6 195.863Z" fill="#4DCED0"/>
<path d="M532.88 146.5C406.531 146.5 139.912 201.109 0 201.109V229.5H1821V146.5C1698.22 146.5 1585.79 201.109 1366.46 201.109C1147.14 201.109 659.229 146.5 532.88 146.5Z" fill="#7B4DD0" fill-opacity="0.4"/>
</svg>
