<svg width="198" height="74" viewBox="0 0 198 74" fill="none" xmlns="http://www.w3.org/2000/svg">
<path fill-rule="evenodd" clip-rule="evenodd" d="M18.5053 0C18.9764 0 19.3583 0.379072 19.3583 0.846682V31.7585L40.8352 34.7507L41.0034 34.8681L41.0038 34.8684C41.004 34.8686 41.0043 34.8688 41.0048 34.8691C41.0057 34.8697 41.0072 34.8707 41.0091 34.872C41.0131 34.8748 41.0191 34.8791 41.0271 34.8846C41.043 34.8957 41.0669 34.9124 41.0984 34.9342C41.1614 34.9779 41.2549 35.0425 41.376 35.1261C41.6181 35.2932 41.971 35.5356 42.4129 35.8361C43.2968 36.4374 44.5359 37.2709 45.9568 38.1989C48.8053 40.0592 52.3592 42.2838 55.2398 43.786C58.1206 45.2883 61.9695 46.9266 65.1159 48.1951C66.6855 48.8278 68.0736 49.3657 69.069 49.7455C69.5667 49.9354 69.9659 50.0857 70.2405 50.1884C70.3661 50.2353 70.4656 50.2723 70.5364 50.2985L105.867 51.6476H114.493L122.867 42.1648H133.143L137.95 30.3112H135.878V25.2311H149.019L152.73 21.167H153.108V10.6682C153.108 10.2006 153.49 9.82151 153.961 9.82151C154.432 9.82151 154.814 10.2006 154.814 10.6682V21.167H157.373V25.2311H160.785V42.1648H164.37L165.998 49.4416C166.551 49.2349 167.279 48.9583 168.093 48.6363C169.89 47.9248 172.072 47.0069 173.694 46.1574C175.108 45.4165 176.892 44.1914 179.056 42.6605C180.406 41.7049 181.811 40.6914 182.878 39.9161C183.412 39.5285 183.861 39.2006 184.176 38.9699C184.334 38.8545 184.458 38.7632 184.543 38.701C184.585 38.6698 184.618 38.646 184.64 38.6299C184.651 38.6218 184.659 38.6157 184.665 38.6117C184.668 38.6097 184.67 38.608 184.671 38.607C184.672 38.6065 184.672 38.6063 184.673 38.606L184.673 38.6057L184.899 38.4394H198L197.925 39.3548V39.3565C197.925 39.3574 197.924 39.3588 197.924 39.3605C197.924 39.364 197.924 39.3692 197.923 39.376C197.922 39.3897 197.92 39.4098 197.918 39.4362C197.914 39.4891 197.907 39.567 197.898 39.6674C197.88 39.8682 197.854 40.1594 197.82 40.5223C197.752 41.248 197.651 42.2614 197.522 43.4123C197.264 45.7066 196.889 48.5755 196.423 50.8036C195.953 53.0486 194.758 56.8304 193.602 60.2021C192.451 63.5576 191.296 66.6319 190.891 67.4359C190.712 67.7922 190.555 68.1295 190.402 68.4602C190.252 68.7869 190.103 69.1153 189.946 69.4319C189.629 70.0734 189.268 70.7015 188.732 71.33C188.193 71.961 187.404 72.6003 186.788 73.0607C186.474 73.2962 186.19 73.4954 185.985 73.6359C185.882 73.7062 185.799 73.7622 185.74 73.8009C185.711 73.8202 185.688 73.8354 185.672 73.8459C185.664 73.8511 185.658 73.8552 185.654 73.8581C185.651 73.8595 185.65 73.8606 185.648 73.8614C185.648 73.8618 185.647 73.8621 185.647 73.8624L185.646 73.8631L185.434 74H44.0479L43.8567 73.8961L44.2658 73.1533C43.8566 73.8962 43.8567 73.8962 43.8567 73.8961L43.8563 73.8958C43.8561 73.8957 43.8557 73.8957 43.8553 73.8955C43.8545 73.895 43.8532 73.8943 43.8517 73.8935C43.8484 73.8918 43.8435 73.8893 43.8373 73.8859C43.8249 73.8791 43.8066 73.8689 43.7827 73.8558C43.7348 73.8296 43.6642 73.7913 43.5734 73.7414C43.3918 73.6415 43.1287 73.496 42.8014 73.3134C42.1468 72.9481 41.2347 72.4333 40.2051 71.8347C38.1523 70.6412 35.6078 69.1009 33.7033 67.7451C29.8958 65.0346 24.8523 60.3406 19.7682 55.1144C14.6642 49.8677 7.95663 41.6461 5.85768 38.5763C4.81105 37.0455 3.56435 35.0395 2.58431 33.4251C2.09317 32.616 1.667 31.9017 1.36346 31.3897C1.21169 31.1338 1.09056 30.9282 1.00727 30.7865C0.96562 30.7156 0.933133 30.6607 0.911306 30.6234C0.900454 30.6049 0.892254 30.5907 0.886649 30.5811C0.883873 30.5763 0.881762 30.5727 0.880318 30.5702C0.879596 30.5689 0.879028 30.5678 0.878652 30.5672C0.878474 30.5669 0.878083 30.5667 0.877986 30.5665L0 29.0617L17.6523 31.5207V0.846682C17.6523 0.379072 18.0343 0 18.5053 0ZM139.308 39.794H151.573V32.3432H142.33L139.308 39.794Z" fill="#071F69"/>
</svg>
