<svg width="268" height="100" viewBox="0 0 268 100" fill="none" xmlns="http://www.w3.org/2000/svg">
<path fill-rule="evenodd" clip-rule="evenodd" d="M25.0476 0C25.6853 0 26.2022 0.51226 26.2022 1.14416V42.9169L55.2719 46.9604L55.4996 47.119L55.5001 47.1195C55.5004 47.1197 55.5008 47.12 55.5014 47.1204C55.5027 47.1213 55.5047 47.1226 55.5073 47.1244C55.5126 47.1281 55.5209 47.1339 55.5316 47.1414C55.5532 47.1564 55.5855 47.1789 55.6281 47.2084C55.7134 47.2675 55.84 47.3548 56.0038 47.4676C56.3316 47.6935 56.8092 48.0211 57.4073 48.4272C58.6038 49.2397 60.281 50.3661 62.2042 51.6202C66.0597 54.1341 70.87 57.1402 74.769 59.1703C78.6682 61.2004 83.8779 63.4143 88.1367 65.1284C90.2612 65.9835 92.14 66.7105 93.4873 67.2237C94.1609 67.4803 94.7014 67.6834 95.0731 67.8222C95.243 67.8856 95.3776 67.9355 95.4735 67.971L143.295 69.794H154.97L166.304 56.9794H180.213L186.721 40.9611H183.915V34.0961H201.703L206.725 28.6041H207.237V14.4165C207.237 13.7846 207.754 13.2723 208.392 13.2723C209.029 13.2723 209.546 13.7846 209.546 14.4165V28.6041H213.01V34.0961H217.628V56.9794H222.48L224.685 66.813C225.432 66.5336 226.418 66.1599 227.52 65.7247C229.952 64.7633 232.906 63.5229 235.1 62.3749C237.014 61.3736 239.43 59.7181 242.358 57.6494C244.186 56.358 246.087 54.9884 247.532 53.9407C248.254 53.4169 248.862 52.9738 249.289 52.662C249.502 52.5061 249.671 52.3827 249.785 52.2986C249.843 52.2565 249.887 52.2243 249.917 52.2025C249.932 52.1916 249.943 52.1834 249.951 52.1779C249.954 52.1753 249.957 52.173 249.959 52.1717C249.96 52.171 249.96 52.1707 249.961 52.1703L249.961 52.1699L250.268 51.9451H268L267.898 53.1822V53.1844C267.898 53.1857 267.898 53.1875 267.898 53.1898C267.897 53.1946 267.897 53.2016 267.896 53.2108C267.894 53.2293 267.892 53.2565 267.889 53.2922C267.883 53.3636 267.874 53.4689 267.862 53.6046C267.838 53.8759 267.803 54.2695 267.756 54.7599C267.664 55.7406 267.528 57.11 267.353 58.6653C267.004 61.7657 266.496 65.6426 265.865 68.6535C265.229 71.6873 263.612 76.7979 262.047 81.3541C260.49 85.8886 258.926 90.0431 258.378 91.1296C258.135 91.6111 257.922 92.0669 257.716 92.5138C257.513 92.9553 257.31 93.3991 257.099 93.8269C256.67 94.6938 256.181 95.5426 255.455 96.3919C254.726 97.2446 253.657 98.1086 252.825 98.7307C252.399 99.0489 252.015 99.3181 251.737 99.5079C251.598 99.603 251.485 99.6786 251.406 99.7309C251.366 99.7571 251.336 99.7776 251.314 99.7917C251.303 99.7988 251.295 99.8044 251.289 99.8083C251.286 99.8102 251.283 99.8116 251.281 99.8127C251.281 99.8133 251.28 99.8137 251.279 99.8141L251.278 99.815L250.991 100H59.6204L59.3615 99.8597L59.9154 98.8558C59.3614 99.8597 59.3616 99.8597 59.3615 99.8597L59.3611 99.8592C59.3608 99.8591 59.3602 99.859 59.3597 99.8588C59.3586 99.8582 59.3568 99.8572 59.3548 99.8561C59.3504 99.8537 59.3437 99.8503 59.3354 99.8458C59.3186 99.8367 59.2938 99.8228 59.2614 99.8051C59.1966 99.7698 59.101 99.7179 58.9782 99.6505C58.7323 99.5156 58.3762 99.3189 57.9332 99.0722C57.0472 98.5785 55.8126 97.8828 54.419 97.0739C51.6405 95.4611 48.1964 93.3796 45.6187 91.5475C40.465 87.8847 33.6385 81.5414 26.7569 74.4789C19.8485 67.3888 10.7696 56.2785 7.92858 52.1301C6.51193 50.0615 4.82448 47.3506 3.49796 45.169C2.83318 44.0757 2.25634 43.1104 1.84549 42.4186C1.64007 42.0726 1.47611 41.7948 1.36337 41.6033C1.307 41.5076 1.26303 41.4334 1.23349 41.383C1.2188 41.358 1.2077 41.3388 1.20011 41.3258C1.19635 41.3194 1.1935 41.3144 1.19154 41.3111C1.19056 41.3094 1.1898 41.3079 1.18929 41.307C1.18905 41.3066 1.18852 41.3064 1.18839 41.3061L0 39.2726L23.8931 42.5956V1.14416C23.8931 0.51226 24.41 0 25.0476 0ZM188.559 53.7757H205.159V43.7071H192.649L188.559 53.7757Z" fill="#071F69"/>
</svg>
